<?xml version="1.0" standalone="no"?>
<!DOCTYPE svg PUBLIC "-//W3C//DTD SVG 20010904//EN"
 "http://www.w3.org/TR/2001/REC-SVG-20010904/DTD/svg10.dtd">
<svg version="1.0" xmlns="http://www.w3.org/2000/svg"
 width="1200.000000pt" height="1600.000000pt" viewBox="0 0 1200.000000 1600.000000"
 preserveAspectRatio="xMidYMid meet">

<g transform="translate(0.000000,1600.000000) scale(0.100000,-0.100000)"
fill="#000000" stroke="none">
<path d="M6194 14499 c-19 -22 -19 -22 3 -10 24 12 39 31 25 31 -5 0 -17 -10
-28 -21z"/>
<path d="M6273 14447 c-51 -19 -51 -28 0 -11 26 9 47 18 47 20 0 6 -12 4 -47
-9z"/>
<path d="M6365 14435 c-33 -13 -53 -24 -44 -24 9 -1 30 6 45 14 16 8 39 15 51
15 12 0 25 5 28 10 10 16 -15 11 -80 -15z"/>
<path d="M6718 14453 c-10 -2 -18 -9 -18 -14 0 -6 8 -5 20 1 11 6 20 13 20 15
0 3 -1 4 -2 4 -2 -1 -11 -3 -20 -6z"/>
<path d="M6478 14443 c7 -3 16 -2 19 1 4 3 -2 6 -13 5 -11 0 -14 -3 -6 -6z"/>
<path d="M6540 14416 c0 -2 7 -6 15 -10 8 -3 15 -1 15 4 0 6 -7 10 -15 10 -8
0 -15 -2 -15 -4z"/>
<path d="M5710 14400 c-9 -6 -10 -10 -3 -10 6 0 15 5 18 10 8 12 4 12 -15 0z"/>
<path d="M6270 14400 c-8 -5 -10 -10 -5 -10 6 0 17 5 25 10 8 5 11 10 5 10 -5
0 -17 -5 -25 -10z"/>
<path d="M6100 14379 c0 -5 5 -7 10 -4 6 3 10 8 10 11 0 2 -4 4 -10 4 -5 0
-10 -5 -10 -11z"/>
<path d="M6203 14373 c-18 -7 -33 -17 -33 -23 0 -5 -7 -7 -15 -4 -8 4 -15 1
-15 -5 0 -17 37 -13 60 7 11 9 30 19 43 22 16 4 18 7 7 11 -8 3 -30 0 -47 -8z"/>
<path d="M6325 14370 l-30 -8 35 0 c19 0 44 3 55 8 18 8 18 9 -5 8 -14 0 -38
-4 -55 -8z"/>
<path d="M5649 14350 c-13 -10 -19 -19 -13 -20 6 0 19 9 29 20 23 26 14 26
-16 0z"/>
<path d="M5815 14360 c-3 -6 1 -7 9 -4 18 7 21 14 7 14 -6 0 -13 -4 -16 -10z"/>
<path d="M6230 14350 c-12 -8 -9 -10 13 -10 15 0 27 5 27 10 0 13 -20 13 -40
0z"/>
<path d="M6925 14350 c-13 -6 -15 -9 -5 -9 8 0 22 4 30 9 18 12 2 12 -25 0z"/>
<path d="M5941 14321 c-11 -7 -11 -9 0 -14 8 -2 -3 -4 -24 -4 -30 1 -43 -5
-57 -22 -9 -13 -19 -19 -21 -13 -4 11 -74 -10 -149 -44 -19 -9 -60 -27 -90
-41 -108 -50 -141 -68 -127 -71 8 -2 34 5 58 14 109 41 295 103 309 104 8 0
27 6 41 14 14 7 43 16 63 20 31 6 35 10 26 21 -7 8 -10 22 -6 30 6 17 -2 19
-23 6z m-21 -30 c0 -13 -28 -22 -35 -11 -3 4 1 11 7 13 20 8 28 8 28 -2z"/>
<path d="M5579 14289 l-24 -20 28 17 c15 9 27 18 27 20 0 8 -8 4 -31 -17z"/>
<path d="M6825 14296 l-50 -14 90 -1 c50 0 97 4 105 9 12 8 9 10 -11 10 -15 0
-39 2 -55 4 -16 3 -51 -1 -79 -8z"/>
<path d="M5654 14285 c-24 -18 -7 -19 26 0 16 9 19 14 9 15 -8 0 -24 -7 -35
-15z"/>
<path d="M6000 14280 c0 -5 4 -10 9 -10 6 0 13 5 16 10 3 6 -1 10 -9 10 -9 0
-16 -4 -16 -10z"/>
<path d="M5249 14253 c-13 -16 -12 -17 4 -4 16 13 21 21 13 21 -2 0 -10 -8
-17 -17z"/>
<path d="M6198 14263 c7 -3 16 -2 19 1 4 3 -2 6 -13 5 -11 0 -14 -3 -6 -6z"/>
<path d="M5175 14240 c-5 -8 -15 -26 -23 -40 l-15 -25 27 26 c16 15 26 33 24
40 -3 10 -6 10 -13 -1z"/>
<path d="M6048 14243 c6 -2 18 -2 25 0 6 3 1 5 -13 5 -14 0 -19 -2 -12 -5z"/>
<path d="M7208 14233 c7 -3 16 -2 19 1 4 3 -2 6 -13 5 -11 0 -14 -3 -6 -6z"/>
<path d="M6675 14220 l-50 -6 38 -8 c20 -5 54 -5 75 -1 20 4 50 9 66 11 16 2
32 6 34 9 7 7 -99 4 -163 -5z"/>
<path d="M5031 14197 c-15 -39 -14 -45 5 -19 8 12 13 28 11 35 -3 6 -10 -1
-16 -16z"/>
<path d="M6425 14213 c-33 -8 -42 -23 -13 -23 14 0 31 7 38 15 13 15 10 16
-25 8z"/>
<path d="M4958 14169 c-16 -22 -28 -43 -28 -48 0 -5 -7 -11 -15 -15 -8 -3 -15
-16 -14 -28 0 -22 1 -22 9 -3 4 11 22 35 38 52 28 30 49 70 40 78 -1 1 -15
-15 -30 -36z"/>
<path d="M6507 14203 c18 -2 50 -2 70 0 21 2 7 4 -32 4 -38 0 -55 -2 -38 -4z"/>
<path d="M7096 14191 c-3 -5 0 -11 8 -14 8 -3 17 1 20 9 6 15 -19 20 -28 5z"/>
<path d="M6138 14183 c7 -3 16 -2 19 1 4 3 -2 6 -13 5 -11 0 -14 -3 -6 -6z"/>
<path d="M6990 14180 c0 -5 12 -10 28 -10 21 0 24 2 12 10 -20 13 -40 13 -40
0z"/>
<path d="M7260 14175 c80 -17 87 -18 74 -5 -5 5 -39 12 -74 15 l-65 5 65 -15z"/>
<path d="M5328 14162 c-38 -23 -36 -35 2 -14 16 9 30 20 30 25 0 9 1 9 -32
-11z"/>
<path d="M5420 14155 c-14 -8 -20 -14 -14 -15 5 0 19 7 30 15 24 18 16 19 -16
0z"/>
<path d="M5999 14156 c-2 -2 -26 -6 -54 -9 -27 -3 -61 -10 -75 -16 -21 -9 -16
-10 25 -5 57 7 125 23 125 29 0 6 -15 7 -21 1z"/>
<path d="M6855 14139 c-15 -6 -11 -8 18 -8 20 -1 37 1 37 3 0 9 -37 12 -55 5z"/>
<path d="M4967 14094 c-15 -25 -24 -50 -21 -56 4 -6 2 -8 -3 -5 -6 4 -16 0
-23 -8 -10 -12 -10 -15 0 -15 9 0 7 -7 -5 -20 -10 -11 -16 -22 -13 -25 6 -7
48 33 48 47 0 6 13 37 30 69 35 70 27 78 -13 13z"/>
<path d="M5270 14120 c-9 -6 -10 -10 -3 -10 6 0 15 5 18 10 8 12 4 12 -15 0z"/>
<path d="M5121 14099 c-7 -12 -10 -23 -8 -26 3 -3 11 5 17 17 15 28 8 35 -9 9z"/>
<path d="M5560 14101 c-111 -41 -146 -56 -165 -69 -16 -12 -17 -13 -2 -8 10 3
43 13 75 22 31 9 67 24 80 32 12 8 39 20 60 28 20 7 28 13 17 12 -11 0 -40 -8
-65 -17z"/>
<path d="M7098 14113 c7 -3 16 -2 19 1 4 3 -2 6 -13 5 -11 0 -14 -3 -6 -6z"/>
<path d="M7485 14107 c17 -8 32 -13 34 -11 7 7 -3 12 -34 19 l-30 6 30 -14z"/>
<path d="M6946 14102 c-3 -6 14 -12 42 -14 45 -4 60 -2 51 6 -11 10 -88 16
-93 8z"/>
<path d="M7230 14106 c0 -3 26 -13 58 -22 31 -9 74 -23 95 -30 20 -8 45 -14
54 -14 28 0 2 18 -42 29 -22 5 -58 16 -80 25 -38 15 -85 21 -85 12z"/>
<path d="M6140 14080 l-85 -6 110 -2 c61 -1 117 3 125 8 17 11 -5 11 -150 0z"/>
<path d="M6348 14083 c6 -2 18 -2 25 0 6 3 1 5 -13 5 -14 0 -19 -2 -12 -5z"/>
<path d="M7485 14080 c-3 -5 -1 -10 4 -10 6 0 11 5 11 10 0 6 -2 10 -4 10 -3
0 -8 -4 -11 -10z"/>
<path d="M6568 14073 c7 -3 16 -2 19 1 4 3 -2 6 -13 5 -11 0 -14 -3 -6 -6z"/>
<path d="M7531 14071 c-9 -6 2 -14 40 -26 30 -9 66 -20 82 -25 36 -12 34 -4
-5 17 -23 12 -103 45 -103 43 0 0 -6 -4 -14 -9z"/>
<path d="M6685 14060 c170 -16 241 -19 214 -11 -14 5 -88 11 -165 14 -112 4
-122 4 -49 -3z"/>
<path d="M5051 14023 c-33 -38 -38 -53 -20 -53 17 0 69 33 69 44 0 5 -8 2 -17
-6 -50 -43 -59 -28 -12 20 17 18 27 32 21 32 -5 0 -24 -16 -41 -37z"/>
<path d="M7220 14041 c30 -10 58 -16 63 -14 4 2 7 -1 7 -6 0 -6 21 -11 50 -11
28 0 50 4 50 10 0 10 -50 20 -185 35 -37 4 -36 4 15 -14z"/>
<path d="M7719 14024 c22 -16 91 -36 91 -27 0 6 -83 43 -100 43 -9 0 -6 -6 9
-16z"/>
<path d="M4855 14019 c-4 -6 -5 -12 -2 -15 2 -3 7 2 10 11 7 17 1 20 -8 4z"/>
<path d="M7040 14006 c54 -28 106 -41 114 -28 6 10 -78 37 -101 33 -6 -1 -14
3 -18 9 -3 5 -14 10 -23 10 -9 -1 3 -11 28 -24z"/>
<path d="M7505 14015 c17 -8 46 -21 65 -29 27 -10 31 -15 18 -20 -9 -4 -35 1
-60 12 -65 30 -83 33 -109 23 -23 -9 -23 -9 -4 -16 11 -4 30 -11 43 -16 13 -5
41 -9 63 -9 33 0 42 -4 46 -21 3 -11 11 -18 19 -15 7 3 16 1 19 -4 4 -6 18
-10 33 -9 l27 1 -25 7 c-24 7 -24 8 8 12 17 3 32 2 32 -2 0 -3 9 -9 20 -12 26
-7 26 -37 1 -37 -11 0 -23 5 -27 11 -4 7 -10 7 -16 1 -6 -6 -4 -18 6 -34 15
-23 19 -24 66 -14 36 7 49 14 45 24 -3 7 -5 18 -5 23 0 4 -7 6 -15 3 -9 -4
-15 0 -15 8 0 8 -12 20 -27 27 -16 7 -45 24 -66 39 -40 27 -130 62 -157 61 -8
0 -1 -7 15 -14z"/>
<path d="M6315 14000 c-8 -13 5 -13 25 0 13 8 13 10 -2 10 -9 0 -20 -4 -23
-10z"/>
<path d="M5667 13986 c-27 -7 -54 -19 -60 -26 -9 -10 -8 -11 8 -6 11 3 61 14
110 25 83 18 86 20 40 20 -27 0 -72 -6 -98 -13z"/>
<path d="M6200 13990 c-12 -8 -9 -10 13 -10 15 0 27 5 27 10 0 13 -20 13 -40
0z"/>
<path d="M4979 13978 c-20 -19 -87 -68 -92 -68 -3 0 -3 10 0 23 4 20 3 20 -7
4 -31 -49 58 -29 105 23 21 23 15 38 -6 18z"/>
<path d="M5300 13970 c-19 -11 -31 -19 -27 -20 11 0 67 29 67 35 0 7 -1 7 -40
-15z"/>
<path d="M7816 13955 c3 -8 14 -17 25 -20 11 -4 17 -10 14 -15 -3 -4 8 -10 23
-13 61 -12 117 -29 129 -39 8 -6 16 -8 19 -5 6 6 -9 14 -103 52 -23 10 -50 26
-59 36 -21 23 -56 26 -48 4z"/>
<path d="M6050 13950 c-12 -8 -12 -10 5 -10 11 0 27 5 35 10 12 8 12 10 -5 10
-11 0 -27 -5 -35 -10z"/>
<path d="M7150 13951 c0 -12 55 -30 100 -32 19 -1 51 5 70 14 l35 15 -65 -1
c-36 -1 -82 2 -102 6 -23 5 -38 4 -38 -2z"/>
<path d="M5738 13943 c-10 -2 -18 -9 -18 -14 0 -5 -11 -9 -24 -9 -31 0 -191
-75 -229 -106 -16 -13 -34 -24 -40 -24 -7 0 -29 -11 -49 -25 -42 -29 -48 -30
-48 -12 0 15 18 31 84 75 27 17 44 32 36 32 -30 0 -212 -103 -265 -150 -16
-15 -38 -30 -48 -33 -16 -6 -16 -5 -1 18 9 14 20 25 24 25 4 0 26 17 48 38 72
68 80 74 119 88 l38 15 -35 -6 c-65 -10 -244 -119 -235 -143 3 -7 0 -10 -5 -7
-10 6 -56 -22 -94 -57 -26 -24 -33 -23 -33 6 0 14 4 23 11 20 6 -2 34 18 61
46 54 55 33 59 -27 5 -18 -16 -38 -30 -44 -30 -14 0 -37 -24 -53 -53 -6 -12
-17 -22 -23 -22 -17 0 -78 -49 -78 -63 0 -7 -9 -18 -20 -25 -11 -7 -20 -19
-20 -26 0 -8 -5 -18 -12 -22 -20 -13 -2 60 26 101 15 21 26 51 26 69 -1 30 -1
30 -13 9 -7 -13 -31 -37 -55 -54 -47 -35 -48 -36 -27 -75 8 -16 15 -37 15 -46
0 -10 5 -18 10 -18 6 0 10 -9 10 -21 0 -17 -2 -18 -13 -7 -8 7 -17 27 -21 43
-10 45 -27 85 -36 85 -13 0 -32 -29 -25 -39 3 -6 2 -18 -3 -28 -9 -14 -10 -14
-16 5 -9 28 -21 28 -40 0 -18 -26 -13 -36 9 -18 9 7 18 10 22 7 7 -7 -26 -37
-77 -69 -66 -42 -90 -73 -90 -116 0 -25 -9 -52 -25 -76 -30 -45 -26 -56 18
-47 34 8 41 4 63 -35 6 -10 21 -20 33 -22 15 -3 20 -9 17 -20 -7 -20 0 -31 37
-59 16 -13 23 -24 17 -28 -5 -3 -22 3 -37 15 -24 18 -28 19 -36 5 -5 -9 -4
-27 2 -43 6 -17 10 -21 10 -9 1 18 21 25 21 6 0 -6 9 -8 20 -4 15 5 20 2 20
-14 0 -35 15 -30 16 5 1 37 23 70 31 47 3 -7 9 -13 13 -13 5 0 21 -12 36 -27
19 -19 29 -23 32 -14 2 7 -10 25 -27 39 -31 27 -56 102 -34 102 11 0 33 -43
33 -64 0 -8 7 -17 16 -20 8 -3 13 -2 10 3 -3 5 0 14 8 20 14 12 27 2 39 -29 3
-10 6 -7 6 8 1 14 10 26 25 32 18 7 23 14 19 29 -6 22 -18 27 -27 12 -5 -8
-29 -4 -108 15 -15 3 -25 10 -22 15 8 13 -15 49 -31 49 -8 0 -15 4 -15 9 0 15
49 -1 55 -18 6 -21 98 -63 120 -55 8 4 27 -1 41 -11 24 -15 25 -15 22 2 -3 15
3 18 40 15 40 -3 43 -2 37 17 -5 17 0 21 30 27 20 3 58 4 83 1 26 -2 39 -3 30
0 -10 2 -18 8 -18 13 0 4 -19 11 -42 15 -49 8 -99 22 -145 42 -17 7 -36 13
-43 13 -6 0 -8 5 -5 10 3 6 2 10 -4 10 -22 0 -81 63 -81 86 0 33 19 30 31 -3
9 -27 76 -83 98 -83 7 0 23 -7 36 -16 13 -9 28 -13 33 -10 5 3 24 -2 42 -10
19 -10 66 -18 118 -20 62 -3 81 -1 67 6 -15 7 -11 8 18 4 30 -5 37 -3 37 10 0
9 8 16 19 16 10 0 30 9 44 20 14 11 31 20 39 20 15 0 100 65 93 72 -3 3 20 17
51 33 31 16 61 34 68 40 7 7 39 21 71 31 l60 18 -35 7 c-26 6 -21 7 18 3 30
-3 59 -1 65 4 12 9 94 26 185 37 44 6 52 4 52 -9 0 -9 -7 -16 -16 -16 -22 0
-134 -40 -159 -57 -11 -7 -27 -13 -36 -13 -9 0 -22 -7 -29 -15 -7 -8 -19 -15
-28 -15 -8 0 -29 -11 -46 -24 -17 -13 -41 -26 -53 -30 -12 -4 -31 -17 -40 -30
-10 -13 -25 -26 -33 -29 -8 -4 1 -4 20 -1 19 4 38 11 41 16 4 6 32 7 68 4 33
-3 88 -9 121 -12 33 -3 60 -10 60 -15 0 -5 18 -9 40 -9 24 0 40 -5 40 -12 0
-6 3 -8 7 -5 3 4 21 -2 39 -13 19 -12 34 -16 36 -10 4 12 69 -7 79 -23 4 -5
28 -8 53 -5 32 4 49 1 57 -8 6 -8 19 -14 29 -14 10 0 20 -9 23 -20 4 -17 12
-20 44 -17 37 3 39 2 35 -22 -4 -21 -2 -23 14 -16 36 15 64 17 64 6 0 -6 11
-11 25 -11 14 0 25 -4 25 -10 0 -5 10 -10 23 -10 12 0 31 -7 41 -15 11 -8 27
-15 35 -15 9 0 29 -7 44 -15 16 -8 42 -16 58 -17 16 -1 29 -6 29 -10 0 -4 9
-8 20 -8 11 0 20 -5 20 -10 0 -6 6 -10 13 -9 12 2 25 -2 75 -22 13 -5 35 -9
50 -10 24 0 25 -1 7 -9 -16 -7 -17 -9 -3 -9 20 -1 80 67 120 137 27 46 48 66
48 44 0 -11 -64 -112 -95 -150 -29 -34 -28 -69 1 -58 10 4 25 -3 40 -19 13
-14 27 -25 32 -25 6 0 13 -11 16 -25 7 -28 23 -25 36 9 8 20 9 20 10 1 1 -23
29 -77 30 -57 0 7 5 10 10 7 6 -4 7 -11 4 -17 -4 -7 -2 -8 4 -4 12 7 94 -68
85 -77 -2 -3 13 -18 34 -33 49 -37 63 -51 63 -61 0 -5 13 -23 29 -41 16 -17
35 -49 41 -69 7 -21 19 -53 26 -71 8 -18 14 -42 14 -52 0 -29 32 -143 43 -155
6 -6 7 2 2 25 -3 19 -8 67 -10 105 -2 39 -9 83 -14 99 -7 18 -8 33 -1 44 8 15
9 14 10 -5 0 -13 4 -23 9 -23 15 0 49 -81 63 -150 l13 -65 5 45 c6 51 23 60
28 15 2 -16 11 -34 19 -40 12 -9 14 -20 9 -40 -6 -25 -5 -27 9 -15 18 15 25
11 29 -21 5 -43 43 -132 54 -125 4 2 5 -18 4 -45 -3 -31 0 -49 7 -49 6 0 11
-4 11 -10 0 -5 -7 -10 -15 -10 -25 0 -17 -20 12 -31 l26 -10 -21 -15 c-12 -8
-22 -23 -23 -32 0 -12 -3 -11 -9 6 -5 12 -7 28 -4 36 3 7 -2 16 -10 19 -9 4
-16 12 -16 19 0 7 -9 19 -20 26 -18 11 -19 10 -10 -11 42 -104 58 -136 72
-151 20 -19 33 -55 23 -64 -14 -14 -78 76 -144 203 -11 21 -16 25 -19 14 -1
-9 11 -42 28 -75 16 -32 30 -64 30 -70 0 -6 8 -21 18 -32 9 -12 25 -33 35 -47
10 -13 21 -24 25 -23 15 3 63 -26 58 -37 -2 -6 2 -22 10 -36 8 -15 14 -18 14
-9 1 10 4 8 9 -5 5 -11 14 -20 22 -20 9 0 17 -19 22 -60 5 -33 13 -65 18 -72
6 -6 12 -42 14 -80 4 -68 4 -68 -14 -45 -24 27 -47 28 -63 2 -7 -11 -23 -20
-35 -20 -30 0 -38 -17 -13 -30 11 -6 20 -17 20 -25 0 -7 5 -15 11 -17 6 -2 10
-12 8 -21 -3 -14 -11 -10 -44 21 -22 20 -50 50 -62 65 -23 27 -53 28 -53 1 0
-8 -6 -11 -15 -8 -9 4 -15 0 -15 -8 0 -21 -59 -18 -62 2 0 8 -2 20 -3 25 -2 6
-3 14 -4 18 0 5 -13 0 -28 -11 -22 -15 -33 -17 -50 -9 -13 5 -23 16 -23 24 0
17 10 17 32 -4 10 -9 21 -13 24 -10 4 3 -6 18 -22 32 -21 20 -29 23 -35 12 -8
-14 -79 -12 -79 2 0 11 -43 29 -57 24 -19 -7 -16 -23 7 -31 10 -4 -35 -7 -101
-7 -67 0 -123 -3 -125 -7 -3 -4 -17 -7 -32 -7 -34 1 -46 -2 -104 -30 -27 -13
-45 -27 -43 -32 3 -4 12 -6 20 -2 8 3 15 0 15 -5 0 -6 -8 -13 -18 -16 -9 -3
-23 -15 -30 -26 -11 -18 -10 -20 8 -20 11 0 20 -4 20 -10 0 -5 18 -10 40 -10
22 0 40 -4 40 -10 0 -5 -26 -10 -57 -10 -77 0 -103 -8 -103 -31 0 -11 7 -19
15 -19 8 0 15 9 15 20 0 18 7 20 71 20 78 0 160 -27 123 -40 -12 -5 0 -9 36
-12 31 -3 60 -1 68 4 14 12 191 -7 207 -23 5 -6 2 -9 -9 -9 -9 0 -14 -4 -11
-10 3 -5 15 -10 26 -10 10 0 19 -4 19 -10 0 -5 7 -7 15 -4 8 4 21 2 28 -4 17
-14 107 -27 107 -15 0 13 49 4 77 -14 12 -8 27 -13 35 -12 31 4 42 -1 30 -13
-7 -7 -12 -16 -12 -20 0 -12 44 -27 50 -17 8 11 101 -4 98 -16 -2 -5 -5 -9 -8
-8 -3 1 -23 4 -45 7 -35 6 -37 5 -15 -5 14 -6 36 -15 49 -20 23 -9 23 -10 5
-24 -18 -13 -17 -14 12 -15 17 0 37 -7 44 -15 7 -8 19 -15 26 -15 8 0 14 -4
14 -10 0 -5 20 -10 45 -10 25 0 45 5 45 10 0 6 7 10 15 10 9 0 15 9 15 25 0
14 -4 25 -10 25 -11 0 -2 60 11 74 5 6 9 -5 9 -27 0 -23 7 -44 20 -57 22 -22
33 -12 24 24 -9 38 -10 96 -2 96 5 0 8 -6 8 -14 0 -24 20 -29 40 -11 17 15 22
16 36 4 12 -10 14 -23 9 -55 -4 -26 -2 -45 5 -49 7 -4 10 -42 9 -102 -1 -78
-11 -132 -55 -305 -42 -164 -56 -238 -65 -346 -11 -140 -39 -290 -66 -352 -43
-101 -101 -219 -120 -246 -13 -17 -23 -38 -23 -47 0 -10 -4 -17 -9 -17 -15 0
-85 -136 -130 -255 -45 -117 -77 -196 -94 -233 -8 -16 -7 -26 0 -33 13 -13 45
1 49 22 12 53 26 105 33 114 4 5 14 26 21 45 36 92 145 299 166 315 16 11 46
61 72 117 9 21 22 38 28 38 17 0 26 43 11 52 -9 6 -9 12 1 28 6 11 12 26 12
33 0 7 8 31 19 53 10 21 21 59 25 83 4 24 13 56 21 72 8 15 15 39 15 54 0 14
5 25 10 25 6 0 10 6 10 14 0 22 40 64 47 48 3 -8 17 5 35 33 16 25 31 45 33
45 2 0 11 -7 19 -16 18 -17 10 -40 -25 -75 -10 -10 -19 -31 -19 -45 0 -24 2
-25 18 -13 19 15 46 43 77 79 16 19 17 22 4 17 -13 -4 -18 2 -23 25 -3 17 -1
37 5 44 6 8 8 35 3 71 l-6 59 50 52 c28 28 53 65 57 82 4 16 13 34 21 38 8 4
17 26 21 47 3 22 21 59 40 83 18 24 33 50 33 58 0 8 4 14 8 14 4 0 14 21 21
48 8 26 18 52 23 58 5 7 14 40 20 74 6 35 19 71 29 81 11 11 19 27 19 37 0 11
9 27 20 37 11 10 20 27 20 37 0 10 7 21 15 24 8 4 15 12 15 20 0 8 4 13 8 11
18 -5 117 139 110 160 -2 4 1 9 6 10 20 3 29 43 51 226 5 37 10 47 21 43 15
-6 16 -1 15 187 0 59 -2 111 -5 116 -5 8 -17 75 -46 267 -5 34 -13 69 -16 79
-4 9 -2 20 4 24 8 5 7 23 -2 66 -8 32 -12 73 -9 90 3 19 0 35 -6 39 -13 8 -15
46 -2 46 5 0 4 21 -1 48 -5 26 -10 60 -11 75 -2 15 -7 31 -13 35 -5 4 -18 42
-28 84 -10 43 -21 77 -24 77 -18 -3 -26 2 -15 9 16 10 -41 140 -75 171 -15 13
-21 20 -14 17 17 -10 16 35 -3 60 -8 10 -15 26 -15 35 0 9 -13 34 -28 55 -15
21 -34 54 -41 72 -7 17 -18 32 -23 32 -6 0 -8 9 -5 20 3 11 1 18 -3 15 -5 -3
-11 3 -15 14 -9 29 -64 95 -86 103 -15 6 -18 13 -13 33 4 16 2 25 -6 25 -6 0
-8 -5 -4 -12 5 -8 -2 -9 -24 -5 -26 5 -30 4 -25 -11 3 -9 15 -29 25 -44 23
-33 38 -105 20 -94 -7 4 -12 13 -12 20 0 8 -7 19 -15 26 -8 7 -15 21 -15 31 0
18 -19 41 -48 59 -13 7 -14 11 -4 18 10 7 10 11 -3 22 -8 7 -15 19 -15 27 0 8
-38 52 -85 99 -50 49 -80 86 -73 88 7 3 20 6 28 9 10 2 5 9 -16 20 -31 16 -32
16 -27 -3 7 -26 -9 -26 -32 0 -10 11 -26 20 -34 18 -9 -1 -27 2 -40 6 -14 5
-27 4 -34 -3 -8 -8 -8 -11 0 -11 12 0 63 -43 63 -53 0 -3 -12 1 -27 9 -36 18
-43 18 -43 -2 0 -13 -5 -12 -34 5 -18 12 -43 21 -55 21 -19 0 -18 -3 12 -30
19 -17 46 -30 60 -30 14 0 28 -4 32 -9 3 -5 26 -21 51 -35 48 -27 84 -34 84
-16 0 6 -5 10 -12 10 -6 0 -8 3 -5 7 10 9 60 -44 52 -56 -3 -6 -13 -7 -23 -2
-20 10 -80 31 -104 36 -10 2 -28 11 -40 19 -31 22 -69 21 -61 -1 5 -13 2 -15
-11 -10 -10 4 -20 7 -22 7 -3 0 -2 5 1 10 3 6 0 10 -8 10 -8 0 -20 7 -27 15
-7 8 -21 15 -32 15 -16 0 -58 -28 -46 -31 2 0 14 -2 28 -5 57 -9 177 -59 205
-85 17 -15 41 -36 55 -47 21 -17 22 -22 11 -35 -11 -14 -9 -20 13 -42 25 -25
46 -33 46 -17 0 5 -11 15 -25 22 -14 7 -25 17 -25 22 0 15 16 8 40 -17 13 -14
31 -25 41 -25 9 0 20 -7 23 -15 8 -21 46 -2 46 23 0 22 -110 78 -121 61 -8
-14 -22 6 -24 34 -2 23 22 34 38 18 8 -8 8 -11 -1 -11 -7 0 -12 -5 -12 -11 0
-5 4 -7 10 -4 5 3 39 -8 74 -24 35 -17 71 -31 80 -31 9 0 16 -8 16 -20 0 -11
-6 -20 -12 -20 -20 0 -75 -50 -62 -56 11 -4 90 -61 139 -99 11 -8 26 -13 33
-10 7 2 10 0 7 -5 -3 -6 -1 -10 4 -10 6 0 11 -7 11 -15 0 -20 -6 -19 -41 6
-25 17 -47 24 -91 28 -5 1 -8 7 -8 14 0 14 -42 55 -77 75 -20 11 -23 10 -23
-6 0 -10 4 -22 9 -27 5 -6 12 -21 16 -35 5 -16 -14 0 -55 48 -35 39 -67 72
-72 72 -5 0 -7 4 -3 9 3 5 -19 25 -50 43 -30 18 -55 36 -55 40 0 5 -6 8 -13 8
-7 0 -35 17 -63 38 -27 20 -82 54 -121 75 -40 21 -75 42 -78 47 -3 6 -11 10
-16 10 -6 0 -7 -4 -4 -10 10 -16 -4 -12 -79 24 -91 44 -182 82 -226 95 -40 11
-116 38 -145 50 -60 26 -79 31 -106 31 -21 0 -28 -4 -23 -12 5 -8 2 -9 -9 -5
-9 3 -19 2 -23 -4 -4 -6 9 -9 33 -7 28 2 37 -1 35 -11 -2 -11 6 -12 40 -7 26
4 38 3 30 -3 -10 -6 -6 -10 14 -15 16 -4 32 -12 35 -18 3 -5 21 -11 40 -12 19
-2 55 -14 79 -27 25 -14 61 -31 80 -39 54 -21 125 -63 112 -68 -6 -2 -44 12
-84 31 -118 56 -166 77 -179 77 -7 0 -40 9 -73 19 -116 37 -171 51 -236 60
-36 6 -92 14 -125 20 -33 5 -103 12 -155 15 -52 3 -128 9 -167 12 -52 5 -73 3
-73 -5 0 -6 16 -11 38 -11 20 0 60 -7 87 -15 l50 -15 -60 5 c-163 13 -305 17
-305 9 0 -5 -49 -9 -112 -9 -111 0 -115 -1 -186 -37 -113 -58 -254 -139 -282
-164 -31 -27 -70 -47 -77 -40 -7 7 15 27 60 55 20 12 37 29 37 38 0 9 6 13 14
10 7 -3 38 10 67 29 30 19 87 50 127 70 40 20 75 41 78 46 7 12 -91 1 -117
-13 -9 -4 -32 -10 -50 -12 -19 -2 -39 -6 -44 -9 -6 -3 -41 -15 -80 -28 -71
-22 -210 -110 -187 -118 7 -2 19 1 27 8 7 6 40 13 72 16 l58 4 -60 -19 c-33
-11 -72 -22 -86 -25 -15 -3 -53 -24 -86 -46 -33 -22 -63 -40 -67 -40 -15 0 -4
19 14 25 11 3 20 12 20 20 0 7 10 19 23 28 12 8 40 31 62 51 22 20 55 46 72
59 32 22 42 37 24 37 -6 0 -12 -4 -16 -9 -3 -6 -29 -21 -58 -35 -28 -13 -70
-43 -92 -65 -36 -38 -65 -52 -65 -33 0 22 -137 47 -235 43 -114 -4 -244 -89
-292 -189 -9 -18 -18 -31 -20 -28 -3 2 8 29 23 60 27 55 135 165 156 158 5 -1
32 4 60 13 86 25 210 18 285 -18 18 -8 28 -5 57 21 19 17 51 38 71 47 19 10
35 21 35 25 0 12 169 92 275 130 50 18 92 36 95 40 3 4 20 11 38 15 18 4 31
12 29 18 -5 15 -67 22 -67 8 0 -6 -6 -11 -13 -11 -18 0 -67 -24 -67 -32 0 -5
-9 -8 -20 -8 -11 0 -50 -13 -86 -30 -35 -16 -72 -26 -81 -23 -11 4 -14 3 -9
-5 11 -18 -19 -15 -34 3 -10 12 -9 16 6 21 11 4 26 13 35 21 10 8 42 17 74 20
45 5 60 11 72 29 8 13 21 24 29 24 7 0 16 5 19 10 6 10 2 11 -27 3z m139 -29
c-3 -3 -12 -4 -19 -1 -8 3 -5 6 6 6 11 1 17 -2 13 -5z m-557 -178 c0 -3 -4 -8
-10 -11 -5 -3 -10 -1 -10 4 0 6 5 11 10 11 6 0 10 -2 10 -4z m70 -21 c-21 -23
-50 -34 -50 -19 0 8 24 30 40 37 30 11 33 6 10 -18z m-56 -50 c-6 -16 -24 -21
-24 -7 0 11 11 22 21 22 5 0 6 -7 3 -15z m936 -25 c0 -5 -17 -12 -37 -15 -21
-4 -50 -11 -65 -17 -15 -5 -33 -8 -40 -5 -7 3 -3 6 10 6 12 1 22 5 22 10 0 4
19 13 43 18 57 14 67 15 67 3z m1710 0 c12 -8 11 -10 -7 -10 -12 0 -25 5 -28
10 -8 13 15 13 35 0z m54 -25 c3 -8 2 -15 -3 -15 -5 0 -14 7 -21 15 -10 12
-10 15 3 15 8 0 17 -7 21 -15z m-1180 -30 c-4 -10 -19 -14 -48 -13 l-41 1 38
4 c20 2 37 8 37 14 0 5 4 9 10 9 5 0 7 -7 4 -15z m53 9 c-3 -3 -12 -4 -19 -1
-8 3 -5 6 6 6 11 1 17 -2 13 -5z m-1912 -34 c-3 -5 -11 -10 -16 -10 -6 0 -7 5
-4 10 3 6 11 10 16 10 6 0 7 -4 4 -10z m335 -10 c0 -5 -4 -10 -10 -10 -5 0
-10 5 -10 10 0 6 5 10 10 10 6 0 10 -4 10 -10z m-400 -20 c0 -5 -4 -10 -10
-10 -5 0 -10 5 -10 10 0 6 5 10 10 10 6 0 10 -4 10 -10z m645 -9 c8 -14 -8
-21 -34 -14 -17 4 -19 8 -9 14 17 11 35 11 43 0z m1255 -22 c-64 -11 -110 -11
-110 1 0 6 32 9 78 9 71 -1 73 -2 32 -10z m-127 -6 c-7 -2 -21 -2 -30 0 -10 3
-4 5 12 5 17 0 24 -2 18 -5z m817 -34 c0 -12 -43 6 -48 20 -3 9 2 9 22 0 14
-7 26 -16 26 -20z m-2855 12 c3 -5 1 -12 -4 -15 -5 -3 -11 1 -15 9 -6 16 9 21
19 6z m835 1 c0 -4 -15 -12 -34 -18 -27 -8 -33 -8 -29 2 4 11 14 15 56 23 4 0
7 -2 7 -7z m1685 -12 c-2 -36 1 -35 -174 -47 -70 -4 -92 -3 -87 5 4 7 19 12
34 12 15 0 34 5 42 11 11 7 6 9 -20 7 -19 -2 -36 2 -37 7 -2 6 38 9 108 7 75
-2 109 1 104 8 -3 5 2 10 13 10 12 0 18 -7 17 -20z m285 -15 c112 -3 138 -8
248 -43 68 -21 123 -43 122 -48 -1 -5 20 -13 47 -18 26 -5 53 -15 61 -22 7 -8
24 -14 36 -14 13 0 35 -9 49 -20 14 -11 30 -20 35 -20 5 0 26 -18 46 -40 20
-22 40 -40 45 -40 6 0 22 -17 38 -37 15 -21 40 -53 55 -71 30 -35 35 -52 16
-52 -6 0 -9 3 -5 6 3 3 -4 17 -15 30 -15 16 -25 21 -33 14 -15 -12 -25 -3 -18
16 3 8 -1 14 -9 14 -12 0 -61 47 -70 68 -5 12 -72 59 -95 66 -13 4 -23 14 -23
22 0 9 -7 14 -18 12 -11 -2 -30 2 -43 9 -124 60 -182 84 -227 93 -30 5 -59 13
-65 17 -7 4 -25 8 -42 9 -16 1 -90 10 -164 20 -104 13 -137 15 -152 6 -11 -7
-39 -11 -64 -10 -43 1 -44 2 -24 19 14 12 16 18 7 22 -10 4 -10 7 1 15 9 6 34
5 75 -5 33 -8 117 -16 186 -18z m-580 5 c0 -5 -5 -10 -11 -10 -5 0 -7 5 -4 10
3 6 8 10 11 10 2 0 4 -4 4 -10z m590 -61 c0 -11 -65 -12 -100 -2 -22 7 -21 8
15 13 47 6 85 1 85 -11z m-2780 -24 c0 -5 -5 -3 -10 5 -5 8 -10 20 -10 25 0 6
5 3 10 -5 5 -8 10 -19 10 -25z m2820 -5 c0 -5 -2 -10 -4 -10 -3 0 -8 5 -11 10
-3 6 -1 10 4 10 6 0 11 -4 11 -10z m121 -22 c16 -12 27 -23 26 -25 -7 -6 -127
41 -127 50 0 15 70 -2 101 -25z m619 -8 c0 -5 -4 -12 -10 -15 -5 -3 -10 -4
-10 -1 0 2 -3 12 -6 20 -5 12 -2 15 10 10 9 -3 16 -10 16 -14z m-1110 -10 c11
-7 8 -10 -15 -9 -16 0 -39 4 -50 9 -16 7 -14 9 15 9 19 0 42 -4 50 -9z m570
-25 c0 -3 -9 -5 -20 -5 -11 0 -20 7 -20 15 0 13 4 14 20 5 11 -6 20 -13 20
-15z m-390 -15 c0 -5 -4 -10 -9 -10 -6 0 -13 5 -16 10 -3 6 1 10 9 10 9 0 16
-4 16 -10z m-36 -19 c13 -11 20 -11 28 -3 7 7 18 12 26 12 12 0 12 -3 2 -15
-7 -8 -10 -15 -7 -15 3 0 13 -3 23 -7 12 -4 15 -3 10 5 -4 7 -3 12 3 12 5 0
13 -4 16 -10 3 -5 1 -10 -4 -10 -6 0 -11 -5 -11 -11 0 -7 11 -9 26 -6 15 3 28
0 30 -8 3 -7 17 -15 32 -18 15 -3 38 -14 52 -24 38 -28 127 -118 139 -142 17
-31 -3 -26 -32 9 -14 17 -30 30 -35 30 -6 0 -24 16 -41 35 -17 19 -37 35 -45
35 -8 0 -22 9 -30 21 -8 12 -19 18 -25 14 -6 -3 -11 -3 -11 2 0 7 -22 18 -135
68 -23 10 -75 20 -122 23 -46 2 -81 7 -79 11 8 13 173 6 190 -8z m211 10 c3
-6 27 -13 53 -16 65 -9 120 -24 126 -34 8 -12 -93 -2 -123 13 -14 7 -38 16
-53 20 -16 3 -28 11 -28 16 0 13 17 13 25 1z m209 3 c9 -3 16 -10 16 -15 0
-14 -26 -10 -40 6 -13 16 -3 20 24 9z m-3164 -34 c14 -11 31 -20 39 -20 16 0
54 -40 46 -48 -3 -3 -11 0 -17 6 -7 7 -22 12 -35 12 -13 0 -23 5 -23 10 0 6
-5 10 -12 10 -14 0 -48 30 -48 42 0 14 24 8 50 -12z m313 -20 c24 0 36 -4 35
-12 -2 -8 6 -12 21 -10 22 2 23 1 8 -20 -8 -13 -21 -21 -29 -19 -7 2 -36 8
-64 13 -40 8 -54 15 -63 35 -16 34 -6 44 27 27 15 -7 44 -14 65 -14z m2870
-17 c-7 -2 -19 -2 -25 0 -7 3 -2 5 12 5 14 0 19 -2 13 -5z m600 -49 c28 -27
41 -33 51 -25 9 8 18 7 32 -5 18 -14 18 -15 -6 -8 -25 7 -25 6 -6 -14 10 -12
23 -19 27 -16 5 3 9 -4 9 -16 0 -11 8 -24 18 -27 24 -9 47 -33 32 -33 -22 0
-184 130 -201 163 -15 27 3 20 44 -19z m57 -125 c0 -11 7 -33 15 -49 9 -17 11
-30 6 -30 -6 0 -17 13 -26 30 -17 33 -21 85 -5 75 6 -3 10 -15 10 -26z m-655
3 c-3 -3 -11 0 -18 7 -9 10 -8 11 6 5 10 -3 15 -9 12 -12z m500 8 c3 -5 2 -10
-4 -10 -5 0 -13 5 -16 10 -3 6 -2 10 4 10 5 0 13 -4 16 -10z m350 -10 c3 -5 1
-10 -4 -10 -6 0 -11 5 -11 10 0 6 2 10 4 10 3 0 8 -4 11 -10z m-145 -19 c0
-11 5 -23 10 -26 6 -3 10 -12 10 -18 0 -7 -9 2 -20 18 -22 34 -25 45 -10 45 6
0 10 -9 10 -19z m77 -23 c-3 -8 -6 -5 -6 6 -1 11 2 17 5 13 3 -3 4 -12 1 -19z
m-220 -25 c3 -10 17 -33 30 -50 18 -24 20 -33 10 -33 -8 0 -17 8 -20 18 -3 9
-15 32 -27 50 -12 18 -17 32 -11 32 7 0 14 -8 18 -17z m193 -54 c0 -6 -4 -7
-10 -4 -5 3 -10 11 -10 16 0 6 5 7 10 4 6 -3 10 -11 10 -16z m-27 -51 c8 -55
-8 -54 -19 0 -4 19 -2 32 4 32 5 0 12 -15 15 -32z m32 -58 c3 -6 -1 -7 -9 -4
-18 7 -21 14 -7 14 6 0 13 -4 16 -10z m95 -30 c0 -5 -9 -10 -20 -10 -11 0 -20
5 -20 10 0 6 9 10 20 10 11 0 20 -4 20 -10z m-80 -75 c0 -8 -4 -15 -10 -15 -5
0 -10 -13 -10 -29 0 -17 5 -33 10 -36 13 -8 13 -25 1 -25 -5 0 -14 23 -20 52
-9 40 -9 53 1 60 19 12 28 10 28 -7z m90 -36 c0 -6 -4 -7 -10 -4 -5 3 -10 11
-10 16 0 6 5 7 10 4 6 -3 10 -11 10 -16z m-11 -307 c0 -24 -1 -25 -9 -7 -12
28 -12 47 0 40 6 -3 10 -18 9 -33z m-102 -239 c-3 -10 -5 -4 -5 12 0 17 2 24
5 18 2 -7 2 -21 0 -30z m-747 -226 c0 -7 -5 -18 -11 -24 -8 -8 -6 -21 6 -46 9
-20 14 -41 10 -47 -5 -7 -14 4 -25 28 -10 22 -24 42 -31 44 -8 3 -5 12 11 31
26 29 40 34 40 14z m-90 -617 c0 -5 -2 -10 -4 -10 -3 0 -8 5 -11 10 -3 6 -1
10 4 10 6 0 11 -4 11 -10z m90 -47 c0 -18 -36 -16 -54 3 -25 25 -19 32 19 20
19 -6 35 -17 35 -23z m24 -49 c3 -8 2 -12 -4 -9 -6 3 -10 10 -10 16 0 14 7 11
14 -7z m6 -144 c0 -5 -4 -10 -9 -10 -6 0 -13 5 -16 10 -3 6 1 10 9 10 9 0 16
-4 16 -10z"/>
<path d="M7360 13940 c0 -5 14 -10 30 -10 17 0 30 5 30 10 0 6 -13 10 -30 10
-16 0 -30 -4 -30 -10z"/>
<path d="M4769 13873 c-44 -67 -74 -133 -61 -133 17 1 41 27 32 36 -5 5 9 38
36 83 24 41 43 75 41 77 -2 2 -23 -27 -48 -63z"/>
<path d="M5530 13928 c-19 -5 -41 -16 -49 -23 -12 -12 -11 -14 10 -13 13 1 31
7 39 14 9 7 27 17 40 23 32 13 6 12 -40 -1z"/>
<path d="M5798 13933 c7 -3 16 -2 19 1 4 3 -2 6 -13 5 -11 0 -14 -3 -6 -6z"/>
<path d="M5920 13920 c0 -6 7 -10 15 -10 8 0 15 2 15 4 0 2 -7 6 -15 10 -8 3
-15 1 -15 -4z"/>
<path d="M7810 13904 c0 -8 20 -23 45 -34 40 -17 45 -22 35 -39 -5 -11 -19
-23 -31 -26 -19 -7 -20 -7 -2 -21 19 -14 59 -19 66 -6 2 4 3 2 1 -4 -3 -13 15
-34 29 -34 4 0 6 9 2 19 -5 16 -2 18 15 14 15 -4 20 0 21 13 0 11 3 14 5 7 3
-7 12 -9 20 -6 8 3 14 -1 14 -11 0 -19 20 -22 20 -3 1 7 6 4 15 -7 7 -10 20
-16 27 -13 10 4 10 6 1 6 -7 1 -13 7 -13 15 0 8 -13 17 -30 21 -16 4 -32 11
-35 16 -4 5 -13 9 -21 9 -17 0 -49 28 -57 50 -4 11 -6 10 -6 -4 -1 -18 -2 -18
-13 -4 -7 9 -34 25 -60 36 -40 17 -48 18 -48 6z m138 -84 c3 -9 -1 -11 -12 -7
-9 4 -16 1 -16 -5 0 -6 -2 -9 -5 -6 -3 3 -3 13 1 22 7 19 25 17 32 -4z"/>
<path d="M6578 13903 c12 -2 32 -2 45 0 12 2 2 4 -23 4 -25 0 -35 -2 -22 -4z"/>
<path d="M4972 13873 c-18 -8 -31 -17 -29 -19 4 -5 67 25 67 32 0 6 -1 5 -38
-13z"/>
<path d="M7008 13883 c6 -2 18 -2 25 0 6 3 1 5 -13 5 -14 0 -19 -2 -12 -5z"/>
<path d="M7325 13884 c46 -7 125 -8 125 -1 0 4 -33 6 -72 6 -40 -1 -64 -3 -53
-5z"/>
<path d="M7060 13873 c0 -13 50 -32 67 -26 12 5 11 9 -8 19 -26 15 -59 18 -59
7z"/>
<path d="M6080 13860 c0 -5 5 -10 10 -10 6 0 10 5 10 10 0 6 -4 10 -10 10 -5
0 -10 -4 -10 -10z"/>
<path d="M6845 13856 c126 -43 170 -52 179 -37 6 10 -93 37 -169 45 l-50 6 40
-14z"/>
<path d="M7795 13860 c-4 -6 2 -13 12 -17 10 -3 21 -8 25 -10 4 -2 9 1 12 5 3
5 -6 14 -19 20 -15 7 -26 8 -30 2z"/>
<path d="M5982 13849 c-24 -4 -58 -17 -75 -28 l-32 -21 31 0 c16 0 36 6 42 12
10 10 15 10 21 0 10 -16 53 -12 59 5 2 9 -5 11 -27 7 -20 -4 -31 -2 -31 5 0 6
12 11 28 12 15 0 36 4 47 9 l20 9 -20 -1 c-11 0 -40 -4 -63 -9z"/>
<path d="M7396 13850 c23 -5 92 -25 155 -44 62 -20 114 -34 117 -31 3 2 -8 9
-24 15 -63 23 -71 30 -24 24 41 -5 44 -4 30 10 -14 15 -188 38 -265 35 -26 -1
-24 -2 11 -9z"/>
<path d="M5033 13831 c-18 -10 -48 -30 -67 -45 -19 -14 -39 -26 -44 -26 -5 0
-12 -11 -14 -25 -4 -21 -3 -23 13 -14 11 5 19 17 19 25 0 8 4 13 9 9 6 -3 13
1 18 8 4 7 24 23 44 35 20 12 42 29 49 37 15 19 13 18 -27 -4z"/>
<path d="M6118 13831 c-21 -10 -41 -21 -45 -26 -5 -4 -3 -6 2 -2 6 3 84 7 173
8 133 3 160 6 146 16 -14 10 -5 13 57 16 41 2 7 3 -76 1 -82 -2 -168 -7 -189
-11 -28 -4 -37 -3 -32 5 9 14 10 15 -36 -7z"/>
<path d="M6660 13840 c25 -8 107 -13 99 -6 -2 2 -31 6 -64 9 -37 3 -51 2 -35
-3z"/>
<path d="M7156 13831 c-3 -5 8 -14 25 -20 27 -9 30 -8 25 5 -3 9 -6 18 -6 20
0 8 -39 4 -44 -5z"/>
<path d="M6795 13822 c6 -5 42 -12 80 -16 78 -6 53 7 -35 18 -35 5 -51 4 -45
-2z"/>
<path d="M4810 13784 c-62 -49 -70 -58 -37 -43 15 7 27 16 27 20 0 4 8 10 18
13 13 5 50 46 40 46 -2 0 -23 -16 -48 -36z"/>
<path d="M7707 13813 c-16 -15 -5 -32 25 -38 18 -4 39 -11 48 -16 8 -4 35 -15
60 -24 25 -10 51 -19 58 -22 7 -3 12 3 12 16 0 14 -6 21 -20 21 -11 0 -20 5
-20 10 0 6 -9 10 -19 10 -11 0 -42 11 -69 25 -52 26 -64 29 -75 18z"/>
<path d="M7240 13802 c0 -10 60 -36 67 -29 2 3 -9 13 -26 21 -34 18 -41 19
-41 8z"/>
<path d="M4597 13707 c-29 -43 -37 -60 -20 -41 46 49 83 97 83 106 0 21 -19 2
-63 -65z"/>
<path d="M7355 13752 c6 -5 24 -14 40 -20 17 -5 39 -13 50 -17 11 -4 7 2 -10
12 -32 21 -97 41 -80 25z"/>
<path d="M7987 13754 c-10 -11 3 -24 24 -24 23 0 25 15 3 24 -19 7 -19 7 -27
0z"/>
<path d="M4842 13704 c-25 -17 -29 -34 -8 -34 7 0 21 11 30 25 19 29 11 32
-22 9z"/>
<path d="M7642 13703 c6 -7 19 -13 30 -13 11 0 32 -7 48 -16 17 -11 35 -14 46
-9 16 6 12 11 -24 27 -53 24 -117 31 -100 11z"/>
<path d="M8210 13710 c0 -5 5 -10 11 -10 5 0 7 5 4 10 -3 6 -8 10 -11 10 -2 0
-4 -4 -4 -10z"/>
<path d="M7480 13700 c0 -5 5 -10 11 -10 5 0 7 5 4 10 -3 6 -8 10 -11 10 -2 0
-4 -4 -4 -10z"/>
<path d="M4617 13663 c-28 -39 -28 -55 -1 -32 16 13 38 59 31 65 -2 2 -16 -13
-30 -33z"/>
<path d="M7590 13690 c0 -13 108 -63 124 -57 6 3 -11 14 -39 26 -27 11 -58 26
-67 31 -13 7 -18 7 -18 0z"/>
<path d="M7520 13670 c0 -5 5 -10 11 -10 5 0 7 5 4 10 -3 6 -8 10 -11 10 -2 0
-4 -4 -4 -10z"/>
<path d="M8200 13665 c7 -8 17 -15 22 -15 5 0 3 7 -6 15 -8 8 -18 15 -22 15
-3 0 -1 -7 6 -15z"/>
<path d="M8170 13630 c6 -11 20 -24 33 -30 19 -9 20 -9 6 2 -8 7 -18 21 -22
31 -3 9 -11 17 -17 17 -8 0 -8 -6 0 -20z"/>
<path d="M8250 13630 c0 -5 5 -10 10 -10 6 0 10 5 10 10 0 6 -4 10 -10 10 -5
0 -10 -4 -10 -10z"/>
<path d="M4440 13548 c-22 -36 -17 -54 7 -23 26 36 34 55 23 55 -6 0 -19 -14
-30 -32z"/>
<path d="M8285 13560 c3 -5 8 -10 11 -10 2 0 4 5 4 10 0 6 -5 10 -11 10 -5 0
-7 -4 -4 -10z"/>
<path d="M4353 13548 c-15 -20 -25 -38 -20 -38 3 0 12 11 21 25 17 26 16 35
-1 13z"/>
<path d="M8335 13550 c3 -5 8 -10 11 -10 2 0 4 5 4 10 0 6 -5 10 -11 10 -5 0
-7 -4 -4 -10z"/>
<path d="M8260 13510 c0 -13 5 -20 13 -17 6 2 12 10 12 17 0 7 -6 15 -12 18
-8 2 -13 -5 -13 -18z"/>
<path d="M5820 13513 c-14 -3 -29 -9 -34 -14 -6 -5 -18 -9 -29 -9 -10 0 -16
-4 -13 -9 5 -8 102 22 115 35 5 4 1 4 -39 -3z"/>
<path d="M8300 13491 c0 -21 13 -41 26 -41 19 0 18 15 -2 34 -18 18 -24 20
-24 7z"/>
<path d="M5680 13480 c0 -5 -8 -10 -17 -11 -20 -1 -103 -37 -88 -38 6 -1 35 8
64 19 60 21 86 40 58 40 -9 0 -17 -4 -17 -10z"/>
<path d="M4547 13459 c-22 -25 -19 -32 7 -14 10 8 16 19 14 25 -2 6 -11 1 -21
-11z"/>
<path d="M4440 13404 c0 -13 -97 -114 -109 -114 -5 0 -16 -11 -24 -24 -12 -17
-13 -26 -4 -35 8 -8 6 -15 -9 -26 -18 -15 -18 -16 6 -10 40 10 100 37 100 46
0 5 9 17 21 28 16 15 19 23 11 37 -7 12 -6 30 4 57 8 22 12 42 9 45 -3 3 -5 1
-5 -4z m-70 -154 c0 -5 -7 -10 -15 -10 -8 0 -15 5 -15 10 0 6 7 10 15 10 8 0
15 -4 15 -10z"/>
<path d="M5498 13382 c-28 -17 -36 -32 -19 -32 6 0 12 4 16 10 3 5 12 7 19 4
7 -3 24 4 37 15 l24 20 -25 0 c-14 -1 -37 -8 -52 -17z"/>
<path d="M8106 13352 c-3 -6 -1 -14 5 -17 15 -10 25 3 12 16 -7 7 -13 7 -17 1z"/>
<path d="M5618 13313 c12 -2 32 -2 45 0 12 2 2 4 -23 4 -25 0 -35 -2 -22 -4z"/>
<path d="M5128 13173 c6 -2 18 -2 25 0 6 3 1 5 -13 5 -14 0 -19 -2 -12 -5z"/>
<path d="M4370 13144 c0 -12 7 -14 33 -9 51 11 56 25 9 25 -32 0 -42 -4 -42
-16z"/>
<path d="M4336 13101 c-4 -7 -5 -15 -2 -18 9 -9 19 4 14 18 -4 11 -6 11 -12 0z"/>
<path d="M4420 13089 c-15 -13 -18 -19 -8 -15 11 3 23 -5 37 -26 l19 -32 -2
35 c-5 56 -6 59 -13 59 -5 0 -19 -10 -33 -21z"/>
<path d="M4500 13096 c0 -2 7 -9 15 -16 12 -10 15 -10 15 4 0 9 -7 16 -15 16
-8 0 -15 -2 -15 -4z"/>
<path d="M4380 13030 c0 -11 -5 -20 -11 -20 -5 0 -7 -4 -4 -10 14 -22 35 -10
35 20 0 17 -4 30 -10 30 -5 0 -10 -9 -10 -20z"/>
<path d="M4360 12964 c0 -8 5 -12 10 -9 6 3 10 10 10 16 0 5 -4 9 -10 9 -5 0
-10 -7 -10 -16z"/>
<path d="M4397 12974 c-4 -4 -7 -14 -7 -23 0 -11 3 -12 11 -4 6 6 10 16 7 23
-2 6 -7 8 -11 4z"/>
<path d="M4130 12955 c0 -8 2 -15 4 -15 2 0 6 7 10 15 3 8 1 15 -4 15 -6 0
-10 -7 -10 -15z"/>
<path d="M4707 12953 c-16 -16 -7 -34 14 -28 19 7 21 4 15 -20 -4 -17 -3 -24
4 -20 5 3 10 14 10 24 0 20 -33 54 -43 44z"/>
<path d="M4340 12930 c0 -5 5 -10 10 -10 6 0 10 5 10 10 0 6 -4 10 -10 10 -5
0 -10 -4 -10 -10z"/>
<path d="M4290 12911 c0 -5 5 -13 10 -16 6 -3 10 -2 10 4 0 5 -4 13 -10 16 -5
3 -10 2 -10 -4z"/>
<path d="M4250 12897 c0 -9 5 -17 11 -17 6 0 8 -9 4 -20 -8 -24 13 -28 22 -4
3 9 -3 25 -16 37 -18 19 -21 19 -21 4z"/>
<path d="M4594 12889 c-3 -6 -1 -16 5 -22 8 -8 11 -5 11 11 0 24 -5 28 -16 11z"/>
<path d="M4497 12845 c3 -22 7 -42 9 -44 8 -9 2 45 -6 64 -7 14 -8 8 -3 -20z"/>
<path d="M4410 12834 c0 -14 4 -23 10 -19 6 3 10 15 10 26 0 10 -4 19 -10 19
-5 0 -10 -12 -10 -26z"/>
<path d="M4260 12800 c0 -5 5 -10 10 -10 6 0 10 5 10 10 0 6 -4 10 -10 10 -5
0 -10 -4 -10 -10z"/>
<path d="M4436 12775 c-3 -8 -1 -25 4 -37 8 -20 9 -18 9 15 1 39 -3 47 -13 22z"/>
<path d="M4631 12734 c0 -11 3 -14 6 -6 3 7 2 16 -1 19 -3 4 -6 -2 -5 -13z"/>
<path d="M4362 12655 c-1 -46 1 -55 8 -37 6 13 6 38 1 60 -8 35 -9 33 -9 -23z"/>
<path d="M4096 12669 c-9 -44 -8 -129 2 -129 8 0 9 6 12 93 2 66 -4 83 -14 36z"/>
<path d="M4284 12667 c-3 -9 -1 -24 4 -33 9 -16 10 -15 17 5 8 27 -11 54 -21
28z"/>
<path d="M4221 12468 c-10 -30 -9 -31 4 -14 8 11 15 26 15 33 0 22 -8 14 -19
-19z"/>
<path d="M7536 12203 c9 -52 14 -54 14 -5 0 23 -5 42 -10 42 -7 0 -8 -14 -4
-37z"/>
<path d="M7561 12114 c0 -11 3 -14 6 -6 3 7 2 16 -1 19 -3 4 -6 -2 -5 -13z"/>
<path d="M7586 12065 c4 -8 8 -15 10 -15 2 0 4 7 4 15 0 8 -4 15 -10 15 -5 0
-7 -7 -4 -15z"/>
<path d="M5167 11870 c-13 -11 -27 -30 -31 -43 -6 -27 -31 -31 -61 -11 -27 19
-35 17 -35 -7 0 -11 -4 -18 -9 -14 -5 3 -12 1 -15 -4 -4 -5 19 -15 50 -22 31
-7 74 -25 95 -41 21 -15 45 -28 53 -28 8 0 18 -5 21 -10 5 -8 11 -7 21 1 11 9
18 9 26 1 7 -7 19 -12 28 -12 8 0 31 -14 50 -30 39 -33 39 -33 59 -21 10 6 25
4 43 -5 16 -8 38 -12 48 -9 12 4 20 2 20 -4 0 -6 9 -11 20 -11 11 0 20 7 20
15 0 19 10 19 35 1 11 -7 43 -14 70 -14 45 -1 48 0 31 13 -17 13 -17 15 -3 21
21 8 22 33 1 41 -12 4 -13 7 -3 14 11 6 10 9 -4 15 -9 3 -17 15 -17 25 0 10
-6 19 -13 19 -7 0 -30 9 -52 20 -22 11 -46 20 -54 20 -8 0 -23 8 -34 17 -18
17 -19 17 -32 0 -16 -23 -25 -22 -25 3 0 11 6 20 13 20 8 0 7 4 -3 10 -8 5
-26 9 -40 9 -17 -1 -19 -3 -7 -6 9 -2 17 -9 17 -14 0 -12 -47 -12 -55 1 -3 6
-15 10 -26 10 -10 0 -19 5 -19 11 0 6 -10 10 -22 9 -13 -1 -25 -1 -28 0 -3 1
-23 2 -45 3 -27 1 -39 -3 -37 -11 1 -7 -5 -12 -14 -12 -12 0 -15 6 -10 25 8
30 6 31 -27 5z m66 -53 c-19 -5 -33 -17 -33 -25 0 -8 -3 -13 -6 -9 -3 3 -3 14
0 25 5 13 16 19 39 19 l32 0 -32 -10z m72 -48 c27 -19 28 -20 5 -13 -13 3 -30
13 -38 20 -20 21 -1 17 33 -7z m335 -79 c0 -5 -2 -10 -4 -10 -3 0 -8 5 -11 10
-3 6 -1 10 4 10 6 0 11 -4 11 -10z m-146 -21 c-6 -11 -24 -2 -24 11 0 5 7 7
15 4 8 -4 12 -10 9 -15z"/>
<path d="M5080 11850 c0 -5 12 -10 28 -9 24 0 25 1 7 9 -27 12 -35 12 -35 0z"/>
<path d="M4940 11810 c-9 -6 -10 -10 -3 -10 6 0 15 5 18 10 8 12 4 12 -15 0z"/>
<path d="M4985 11474 c-58 -13 -144 -38 -170 -49 -105 -45 -155 -70 -145 -73
7 -3 46 12 88 31 121 57 183 71 302 71 110 0 184 -8 235 -26 35 -12 104 -46
124 -62 7 -6 19 -11 25 -11 22 0 76 -30 76 -42 0 -17 -2 -17 -83 13 -125 44
-325 66 -419 44 -24 -5 -88 -19 -143 -30 -55 -11 -124 -28 -154 -36 l-55 -16
35 -15 c19 -8 57 -17 84 -20 65 -8 90 -20 75 -38 -15 -18 7 -24 42 -11 32 12
34 18 13 36 -24 20 -17 34 25 53 47 22 56 18 64 -29 4 -20 12 -47 18 -60 13
-28 83 -62 146 -71 23 -3 45 -10 48 -14 3 -5 17 -9 32 -9 15 0 40 -8 55 -19
15 -10 38 -16 51 -14 15 3 30 -2 42 -15 16 -17 36 -21 129 -25 147 -6 172 -2
180 32 8 36 -8 76 -42 106 -21 19 -24 24 -11 25 9 0 19 6 21 13 3 6 6 2 6 -11
1 -19 3 -21 14 -10 8 7 13 19 11 28 -1 8 -5 26 -8 40 -8 40 -74 104 -146 142
-59 31 -109 47 -210 64 -44 8 -328 14 -355 8z m595 -204 c0 -5 11 -12 25 -16
16 -4 25 -13 25 -25 0 -27 -11 -24 -56 16 -35 31 -37 34 -16 35 12 0 22 -4 22
-10z m-110 -73 c0 -6 8 -19 17 -29 15 -17 15 -19 -3 -33 -22 -17 -62 -16 -68
2 -3 6 3 30 12 52 13 29 20 37 29 29 7 -6 13 -15 13 -21z"/>
<path d="M7018 11403 c7 -3 16 -2 19 1 4 3 -2 6 -13 5 -11 0 -14 -3 -6 -6z"/>
<path d="M4064 11355 c-3 -8 -4 -20 -1 -27 3 -7 6 -2 6 11 1 17 5 21 17 17 8
-3 12 -2 9 4 -9 15 -25 12 -31 -5z"/>
<path d="M6814 11345 c-19 -14 -19 -14 2 -15 12 0 24 7 28 15 7 19 -5 19 -30
0z"/>
<path d="M10050 11289 c0 -11 4 -18 10 -14 5 3 7 12 3 20 -7 21 -13 19 -13 -6z"/>
<path d="M9787 11233 c-4 -3 -7 -13 -7 -21 0 -12 3 -12 15 -2 8 7 15 16 15 21
0 11 -14 12 -23 2z"/>
<path d="M4985 11170 c3 -5 11 -10 16 -10 6 0 7 5 4 10 -3 6 -11 10 -16 10 -6
0 -7 -4 -4 -10z"/>
<path d="M6852 11123 c-24 -3 -32 -8 -28 -19 7 -18 -11 -18 -30 1 -20 20 -74
20 -74 0 0 -12 -24 -32 -40 -33 -31 -2 -55 -32 -25 -32 9 0 12 -6 9 -15 -4 -9
-13 -14 -22 -13 -8 2 -16 -5 -17 -15 -2 -9 1 -15 6 -11 5 3 9 -2 9 -10 0 -8
-10 -16 -22 -18 -13 -2 -22 -9 -21 -15 2 -7 -6 -15 -17 -18 -17 -5 -20 -15
-20 -60 0 -71 5 -82 46 -95 19 -6 34 -16 34 -21 0 -5 10 -9 23 -9 13 0 27 -4
33 -8 17 -15 108 -31 166 -29 48 1 61 -3 83 -23 15 -14 39 -25 53 -25 18 0 30
-7 37 -22 12 -28 25 -29 32 -3 8 29 19 25 34 -12 7 -17 15 -26 17 -20 7 23 86
9 82 -14 -3 -17 30 -30 39 -15 7 11 13 10 36 -5 19 -12 49 -18 105 -19 70 -2
140 -20 210 -54 8 -4 31 -7 50 -7 l35 1 -1 55 c-1 52 -21 94 -82 175 -4 6 -18
26 -31 45 -37 55 -118 113 -231 168 -58 27 -113 52 -122 55 -10 4 -20 18 -24
32 -4 17 -13 25 -29 25 -30 0 -85 20 -85 31 0 5 5 9 11 9 5 0 7 5 4 10 -7 12
-45 14 -45 2 0 -4 6 -14 13 -21 10 -11 9 -12 -3 -5 -22 13 -101 33 -132 34
-32 0 -46 16 -21 23 22 6 1 5 -45 0z m347 -199 c71 -16 95 -27 181 -83 89 -57
149 -110 176 -157 14 -24 29 -44 34 -44 4 0 10 -12 13 -26 l4 -25 -30 28 c-17
15 -36 33 -42 39 -13 14 -106 83 -199 148 -78 54 -160 96 -191 96 -11 1 -36 9
-55 20 l-35 19 39 1 c22 0 69 -7 105 -16z m-307 -136 c-2 -11 -8 -16 -13 -11
-5 5 -6 19 -2 32 4 15 8 19 13 11 4 -7 5 -21 2 -32z m463 -104 c30 -20 24 -34
-15 -34 -34 0 -47 15 -30 35 15 19 15 19 45 -1z"/>
<path d="M9862 11108 c-15 -15 -16 -48 -2 -48 6 0 10 6 10 14 0 8 6 16 13 19
8 3 9 8 2 16 -8 8 -14 8 -23 -1z"/>
<path d="M9934 11059 c3 -17 6 -36 6 -41 0 -5 5 -6 10 -3 6 3 10 22 10 41 0
25 -4 34 -16 34 -13 0 -15 -7 -10 -31z"/>
<path d="M10298 11043 c-33 -17 -36 -29 -8 -36 11 -3 20 -13 20 -24 0 -15 2
-15 10 -3 6 9 5 17 -2 21 -6 4 -4 16 7 33 19 29 13 31 -27 9z"/>
<path d="M4013 11029 c-2 -23 3 -25 10 -4 4 8 3 16 -1 19 -4 3 -9 -4 -9 -15z"/>
<path d="M9831 11022 c-13 -25 -14 -32 -2 -32 9 0 23 41 16 48 -2 2 -8 -5 -14
-16z"/>
<path d="M10137 11003 c-10 -17 2 -41 24 -48 27 -9 19 -27 -19 -45 -17 -8 -32
-21 -32 -27 0 -15 16 -17 25 -3 10 17 25 11 25 -10 0 -11 4 -20 10 -20 13 0
30 34 30 59 0 23 34 63 45 53 3 -4 3 2 -1 11 -6 16 -8 16 -30 2 -34 -22 -51
-19 -61 12 -6 16 -12 22 -16 16z"/>
<path d="M9878 10938 c-22 -47 -25 -63 -18 -90 5 -18 8 -40 7 -48 -1 -8 2 -16
8 -18 10 -3 37 158 33 193 -2 14 -11 2 -30 -37z"/>
<path d="M10087 10943 c-10 -9 -9 -23 2 -23 5 0 11 7 15 15 5 15 -5 20 -17 8z"/>
<path d="M10200 10725 c-8 -9 -8 -15 -2 -15 12 0 26 19 19 26 -2 2 -10 -2 -17
-11z"/>
<path d="M10053 10713 c-7 -17 15 -43 31 -37 7 3 18 16 24 29 10 22 9 24 -19
23 -17 -1 -33 -7 -36 -15z"/>
<path d="M6612 10682 c-9 -3 2 -20 33 -52 27 -28 54 -46 61 -43 8 3 14 -1 14
-11 0 -9 8 -16 18 -16 9 0 28 -13 42 -30 16 -19 34 -30 50 -30 14 0 31 -9 38
-20 7 -11 23 -20 36 -20 14 0 28 -4 31 -10 3 -5 15 -10 26 -10 10 0 19 5 19
10 0 6 -4 10 -10 10 -5 0 -10 9 -10 20 0 14 -7 20 -24 20 -13 0 -31 3 -40 6
-19 7 -22 50 -4 56 9 3 9 6 0 12 -7 4 -12 2 -12 -3 0 -6 -7 -11 -15 -11 -8 0
-15 5 -15 11 0 5 -3 8 -7 6 -5 -3 -14 1 -21 9 -7 8 -10 14 -7 14 4 0 0 7 -9
15 -14 15 -46 11 -46 -6 0 -18 -38 -8 -43 11 -3 12 -14 20 -26 20 -12 0 -21 4
-21 9 0 14 -43 38 -58 33z m221 -129 c-7 -2 -19 -2 -25 0 -7 3 -2 5 12 5 14 0
19 -2 13 -5z"/>
<path d="M6840 10660 c14 -11 36 -20 50 -20 21 0 19 3 -15 20 -50 25 -67 25
-35 0z"/>
<path d="M9910 10476 c0 -9 7 -16 16 -16 9 0 14 5 12 12 -6 18 -28 21 -28 4z"/>
<path d="M10070 10460 c-6 -11 -9 -26 -7 -33 3 -7 10 1 16 17 14 35 7 47 -9
16z"/>
<path d="M9843 10433 c2 -28 27 -46 27 -20 0 9 3 22 6 31 4 11 0 16 -14 16
-16 0 -20 -6 -19 -27z"/>
<path d="M7038 10403 c7 -3 16 -2 19 1 4 3 -2 6 -13 5 -11 0 -14 -3 -6 -6z"/>
<path d="M10016 10276 c-9 -15 -16 -32 -14 -38 2 -6 12 1 22 16 9 15 16 32 14
38 -2 6 -12 -1 -22 -16z"/>
<path d="M9887 10283 c-3 -5 -1 -17 4 -28 7 -17 8 -17 8 8 1 27 -4 34 -12 20z"/>
<path d="M9501 10144 c0 -11 3 -14 6 -6 3 7 2 16 -1 19 -3 4 -6 -2 -5 -13z"/>
<path d="M9506 10067 c3 -10 9 -15 12 -12 3 3 0 11 -7 18 -10 9 -11 8 -5 -6z"/>
<path d="M9930 10059 c0 -5 5 -7 10 -4 6 3 10 8 10 11 0 2 -4 4 -10 4 -5 0
-10 -5 -10 -11z"/>
<path d="M5506 10007 c-17 -12 -15 -15 18 -41 28 -21 49 -28 90 -29 30 -1 58
2 63 6 4 5 -10 24 -31 43 -31 27 -48 34 -81 34 -23 0 -49 -6 -59 -13z"/>
<path d="M6100 9853 c1 -21 21 -34 74 -48 68 -18 86 -19 86 -4 0 17 -22 34
-59 47 -38 13 -101 16 -101 5z"/>
<path d="M4855 9389 c-21 -64 -8 -94 37 -85 17 3 60 6 97 6 l66 1 -45 40 c-25
22 -66 50 -92 63 l-47 24 -16 -49z"/>
<path d="M5374 9232 c3 -6 23 -16 44 -23 20 -6 39 -15 42 -18 8 -10 49 -31 60
-31 26 0 6 30 -32 48 -52 25 -124 40 -114 24z"/>
<path d="M5586 9153 c-3 -3 -1 -12 5 -20 6 -7 8 -13 3 -13 -4 0 19 -13 51 -30
32 -16 69 -30 81 -30 13 0 25 -4 28 -9 3 -4 47 -11 98 -14 51 -4 107 -9 123
-12 17 -2 53 -7 80 -9 65 -5 139 -21 193 -40 23 -8 49 -13 57 -10 8 4 15 1 15
-6 0 -6 3 -9 8 -7 4 3 17 1 30 -4 18 -7 22 -14 17 -29 -5 -14 -2 -20 9 -20 9
0 16 -7 16 -15 0 -11 7 -14 25 -10 82 17 75 19 118 -33 l27 -33 24 25 c13 14
28 26 35 26 6 0 11 5 11 10 0 6 6 10 13 10 20 0 20 64 -1 111 -10 25 -22 37
-30 34 -7 -3 -22 0 -32 5 -13 7 -30 5 -60 -9 -22 -10 -51 -17 -63 -16 -12 1
-36 3 -53 4 -16 0 -39 10 -51 20 -16 16 -99 51 -118 51 -13 0 -3 -29 12 -34
13 -5 14 -9 5 -15 -18 -11 -72 -1 -69 12 1 8 -30 14 -87 19 -56 4 -92 11 -97
20 -7 10 -9 10 -9 1 0 -27 -30 -13 -31 15 0 24 -1 25 -9 6 -6 -17 -18 -21 -57
-22 -26 -1 -56 -5 -65 -8 -10 -3 -30 1 -45 10 -16 8 -59 24 -98 36 -38 12 -77
26 -86 31 -9 4 -20 5 -23 2z"/>
<path d="M5730 9135 c0 -8 4 -15 10 -15 5 0 7 7 4 15 -4 8 -8 15 -10 15 -2 0
-4 -7 -4 -15z"/>
<path d="M5777 9133 c-14 -13 -6 -23 18 -23 14 0 25 -4 25 -10 0 -5 9 -10 21
-10 27 0 19 25 -9 26 -12 1 -28 6 -35 13 -8 6 -17 8 -20 4z"/>
<path d="M11805 9030 c-3 -5 7 -12 22 -16 15 -3 37 -8 48 -11 17 -4 16 -1 -5
16 -27 22 -55 27 -65 11z"/>
<path d="M11924 9026 c-6 -16 11 -46 27 -46 13 0 10 23 -6 44 -13 17 -15 18
-21 2z"/>
<path d="M7571 8941 c-9 -6 -11 -16 -7 -27 7 -18 8 -18 17 -1 14 23 8 39 -10
28z"/>
<path d="M11890 8920 c0 -5 7 -10 15 -10 8 0 15 5 15 10 0 6 -7 10 -15 10 -8
0 -15 -4 -15 -10z"/>
<path d="M7556 8865 c-3 -9 -6 -22 -5 -28 0 -7 5 -1 10 12 5 13 8 26 5 28 -2
2 -6 -3 -10 -12z"/>
<path d="M11925 8832 l-30 -4 34 -14 c38 -16 41 -15 32 6 -4 10 -16 14 -36 12z"/>
<path d="M11870 8655 c-22 -13 -23 -14 -5 -14 11 0 29 6 39 14 26 20 0 20 -34
0z"/>
<path d="M11941 8616 c-9 -11 -7 -15 7 -18 21 -6 52 8 52 22 0 15 -46 12 -59
-4z"/>
<path d="M11915 8570 c-3 -6 1 -7 9 -4 18 7 21 14 7 14 -6 0 -13 -4 -16 -10z"/>
<path d="M11972 8470 c0 -14 2 -19 5 -12 2 6 2 18 0 25 -3 6 -5 1 -5 -13z"/>
<path d="M6895 8410 c-3 -5 1 -10 9 -10 9 0 16 5 16 10 0 6 -4 10 -9 10 -6 0
-13 -4 -16 -10z"/>
<path d="M6975 8410 c-19 -8 -19 -9 3 -9 12 -1 22 4 22 9 0 6 -1 10 -2 9 -2 0
-12 -4 -23 -9z"/>
<path d="M6898 8383 c12 -2 32 -2 45 0 12 2 2 4 -23 4 -25 0 -35 -2 -22 -4z"/>
<path d="M6880 8330 c0 -28 -2 -30 -40 -30 -22 0 -40 5 -40 10 0 6 -4 10 -10
10 -5 0 -10 -18 -10 -40 0 -22 5 -40 10 -40 27 0 5 -28 -30 -40 -22 -7 -40
-19 -40 -27 0 -7 -11 -13 -24 -13 -19 0 -23 -4 -19 -20 3 -12 0 -20 -7 -20 -6
0 -27 -16 -46 -35 -18 -19 -40 -35 -48 -35 -8 0 -16 -3 -18 -7 -1 -5 -15 -15
-30 -23 -91 -51 -128 -77 -128 -87 0 -7 -11 -13 -25 -13 -15 0 -25 -6 -25 -14
0 -15 -35 -29 -115 -46 -125 -27 -155 -37 -155 -51 0 -4 -7 -6 -15 -3 -8 4
-21 2 -28 -3 -6 -5 -27 -10 -46 -12 -37 -2 -61 -16 -61 -35 0 -6 -10 -12 -22
-13 -85 -6 -135 -17 -176 -39 -27 -15 -48 -21 -50 -14 -5 13 -79 13 -87 0 -3
-5 -22 -10 -41 -10 -26 0 -34 -4 -34 -18 0 -13 12 -22 40 -31 38 -11 55 -31
28 -31 -7 -1 -2 -7 12 -15 14 -7 25 -17 25 -22 1 -11 24 -50 25 -39 0 5 7 3
15 -4 18 -15 20 -46 3 -53 -7 -3 -3 -6 8 -6 25 -1 34 -19 34 -67 0 -30 3 -34
25 -34 23 0 25 -4 25 -40 0 -36 -2 -40 -25 -40 -14 0 -25 -4 -25 -9 0 -5 11
-18 25 -29 21 -17 25 -28 25 -71 l0 -51 -39 0 c-39 0 -39 0 -42 -42 l-4 -43
43 4 42 3 0 -40 c0 -40 0 -40 43 -43 l42 -4 -3 83 -3 82 40 0 c23 0 41 5 41
10 0 6 18 10 40 10 22 0 40 -4 40 -10 0 -5 18 -10 40 -10 22 0 40 -4 40 -10 0
-5 18 -10 40 -10 22 0 40 5 40 10 0 6 18 10 40 10 l40 0 0 -40 c0 -36 3 -40
25 -40 23 0 25 -4 25 -40 0 -29 -4 -40 -15 -40 -8 0 -15 -9 -15 -19 0 -11 -4
-23 -10 -26 -5 -3 -10 -17 -10 -31 0 -24 -14 -32 -25 -14 -3 6 -17 10 -31 10
-29 0 -33 -25 -4 -33 12 -3 20 -14 20 -25 0 -12 -9 -23 -20 -27 -11 -3 -20
-11 -20 -16 0 -5 -18 -16 -40 -25 -22 -9 -40 -23 -40 -31 0 -12 -8 -15 -38
-11 -24 4 -42 1 -50 -8 -12 -13 -45 -19 -85 -14 -10 1 -29 -6 -42 -14 -31 -20
-40 -20 -119 4 -66 21 -86 40 -43 40 21 1 21 1 2 12 -30 16 -30 17 -9 33 17
13 17 14 2 15 -10 0 -18 5 -18 10 0 6 -18 10 -40 10 -29 0 -40 -4 -40 -15 0
-11 -11 -15 -39 -15 -30 0 -44 -6 -59 -25 -11 -14 -24 -25 -30 -25 -6 0 -23
-7 -39 -15 -15 -8 -40 -17 -54 -20 -15 -2 -40 -17 -56 -31 -26 -22 -41 -26
-113 -30 -45 -3 -91 -9 -102 -15 -11 -6 -22 -8 -25 -5 -11 11 -43 -15 -43 -35
0 -11 -4 -18 -9 -15 -5 3 -14 -1 -20 -8 -10 -12 -20 -11 -64 8 -29 12 -71 28
-94 36 -36 11 -42 17 -41 39 2 24 -3 98 -32 471 -6 69 -9 230 -9 358 1 128 0
234 -3 237 -5 6 -204 -169 -233 -205 -11 -13 -28 -33 -37 -42 -10 -10 -18 -21
-18 -24 0 -3 -10 -20 -23 -37 -31 -43 -58 -134 -56 -190 2 -38 6 -47 23 -49
12 -2 21 -10 21 -18 0 -8 6 -19 13 -23 6 -4 12 -15 12 -23 0 -22 78 -102 140
-143 l55 -36 -38 -3 c-23 -2 -46 2 -55 11 -22 19 -52 29 -52 17 0 -5 8 -11 18
-14 9 -3 26 -19 37 -36 19 -29 45 -40 45 -20 0 6 5 10 10 10 16 0 12 -30 -5
-36 -8 -4 -15 -13 -15 -21 0 -12 3 -13 13 -4 8 6 17 8 20 4 14 -13 6 -20 -19
-20 -15 0 -30 -7 -35 -14 -6 -11 -11 -10 -27 4 -10 9 -24 17 -31 17 -8 0 -10
7 -6 19 4 12 0 23 -9 28 -22 12 -76 89 -115 163 -42 81 -53 189 -27 265 14 41
14 45 0 34 -20 -17 -64 -111 -64 -138 0 -33 -25 -20 -26 13 -1 15 3 29 7 32 5
3 25 34 45 70 24 42 41 63 50 60 7 -3 16 -1 19 4 4 6 1 10 -4 10 -6 0 -11 5
-11 10 0 6 6 10 13 10 7 0 20 13 29 28 29 48 289 290 327 304 12 4 19 77 8 78
-9 2 -182 -154 -257 -231 -39 -40 -94 -110 -125 -158 -5 -9 -12 -18 -15 -21
-3 -3 -27 -35 -52 -71 -26 -36 -58 -76 -72 -90 -14 -13 -26 -32 -26 -42 0 -10
-10 -28 -23 -41 -12 -12 -23 -31 -25 -42 -3 -21 -10 -26 -92 -81 -30 -20 -82
-55 -116 -77 -33 -23 -69 -47 -80 -54 -17 -11 -17 -12 6 -6 14 4 27 10 30 13
3 4 16 12 30 18 14 6 34 18 45 27 58 46 150 94 160 84 3 -3 -7 -11 -23 -19
-41 -20 -68 -50 -85 -91 -9 -21 -23 -38 -31 -38 -9 0 -16 -7 -16 -15 0 -8 -7
-15 -15 -15 -8 0 -17 -10 -20 -23 -6 -23 -76 -67 -106 -67 -9 0 -22 -7 -29
-15 -7 -8 -25 -15 -41 -15 -20 0 -29 -5 -29 -16 0 -8 -5 -12 -10 -9 -6 3 -13
-1 -16 -9 -3 -8 -14 -18 -25 -21 -10 -4 -19 -12 -19 -19 0 -7 -9 -24 -21 -37
-11 -13 -27 -36 -35 -51 -8 -16 -18 -28 -22 -28 -4 0 -12 -11 -19 -25 -10 -22
-9 -25 7 -25 14 0 20 -11 25 -41 5 -29 11 -39 21 -35 8 3 14 1 14 -5 0 -38 69
-46 90 -10 7 11 9 0 10 -41 0 -31 -4 -60 -10 -63 -5 -3 -10 -16 -10 -27 0 -12
-15 -39 -34 -62 -18 -23 -41 -56 -50 -74 -16 -31 -35 -58 -63 -87 -7 -8 -13
-18 -13 -24 0 -6 -4 -11 -8 -11 -5 0 -19 -22 -32 -50 -13 -27 -34 -57 -47 -65
-13 -9 -23 -22 -23 -30 0 -8 -6 -18 -13 -22 -6 -4 -18 -21 -26 -36 -8 -15 -20
-25 -28 -23 -7 3 -15 1 -18 -4 -3 -5 2 -10 11 -12 10 -2 -13 -16 -50 -32 -43
-19 -65 -34 -62 -42 3 -8 0 -11 -10 -7 -8 3 -23 -2 -33 -11 -9 -9 -32 -19 -50
-22 -27 -6 -33 -4 -38 15 -6 25 -33 28 -33 4 0 -14 -3 -13 -20 5 -21 23 -31
28 -28 15 3 -15 -14 -83 -21 -83 -4 0 -12 5 -19 12 -9 9 -12 6 -12 -14 0 -14
-7 -31 -15 -38 -8 -7 -15 -23 -15 -36 0 -12 -7 -29 -15 -38 -8 -8 -15 -22 -15
-30 0 -9 -3 -16 -8 -16 -4 0 -18 -18 -32 -40 -14 -22 -27 -40 -30 -40 -8 0
-34 -73 -32 -87 2 -6 -2 -14 -8 -18 -5 -3 -10 -18 -10 -33 0 -21 -2 -24 -10
-12 -5 8 -10 27 -10 42 0 30 54 173 74 198 16 19 58 116 86 200 12 36 31 82
42 103 24 46 70 202 70 240 1 28 13 36 21 15 3 -7 6 -1 6 13 1 15 8 43 17 64
8 20 13 42 11 48 -5 13 -11 1 -23 -48 -12 -51 -16 -2 -4 57 6 29 17 85 25 123
8 39 26 120 40 180 14 61 34 148 44 195 10 47 23 101 29 120 6 19 14 58 17 85
4 28 18 88 32 135 14 47 32 110 39 140 8 30 18 64 23 75 5 11 21 53 36 93 15
39 35 89 45 110 20 40 19 49 -2 36 -7 -5 -20 -7 -28 -6 -9 1 -24 -11 -34 -28
-22 -39 -15 -51 8 -14 10 14 20 24 22 21 5 -5 -15 -55 -29 -72 -4 -5 -15 -19
-23 -30 -15 -19 -15 -19 -10 10 8 42 -59 -94 -113 -228 -24 -61 -51 -155 -63
-215 -11 -59 -26 -126 -34 -150 -8 -23 -14 -66 -14 -95 0 -29 -6 -63 -13 -77
-12 -25 -15 -105 -4 -116 3 -3 3 -13 0 -21 -5 -12 -7 -12 -14 -1 -6 9 -9 3 -9
-18 0 -17 -7 -37 -15 -44 -20 -17 -20 0 1 69 23 77 10 73 -19 -6 -34 -91 -61
-185 -93 -323 -29 -129 -52 -215 -90 -340 -50 -169 -98 -468 -87 -545 3 -21
-6 -54 -30 -105 -61 -129 -88 -200 -113 -299 -8 -30 -45 -132 -83 -225 -60
-150 -99 -265 -196 -576 -38 -121 -73 -252 -80 -300 -14 -97 -139 -581 -177
-685 -83 -231 -200 -609 -257 -835 -27 -107 -63 -242 -80 -300 -36 -124 -55
-219 -81 -395 -27 -188 -29 -211 -40 -419 -11 -199 -16 -225 -85 -456 -41
-136 -50 -173 -91 -360 -9 -41 -29 -113 -45 -160 -16 -47 -29 -86 -29 -87 0
-2 1790 -2 3978 -1 3846 3 3979 4 4006 21 24 16 27 23 22 50 -3 17 -13 38 -21
47 -23 25 -18 37 18 55 18 8 48 29 66 45 36 34 39 33 90 -23 20 -22 55 -60 79
-85 23 -25 42 -50 42 -56 1 -6 9 -21 19 -33 l19 -23 1141 0 1141 0 0 1703 c0
1345 -3 1710 -13 1742 -34 108 -131 244 -199 279 -97 51 -125 74 -142 118 -9
22 -14 49 -10 60 15 48 -6 89 -85 167 -45 44 -101 112 -131 161 -107 172 -242
337 -298 364 -31 16 -32 19 -26 54 4 20 13 54 20 76 29 82 6 281 -42 353 -16
25 -17 50 -15 223 2 230 -6 289 -54 383 -55 108 -167 236 -207 237 -10 0 -15
5 -12 13 3 9 -9 18 -36 27 -23 8 -46 22 -51 32 -7 12 -17 17 -28 13 -10 -3
-31 -1 -46 5 -17 6 -39 7 -59 2 -37 -10 -56 -6 -56 14 0 11 -6 11 -27 3 -16
-6 -61 -11 -101 -11 -42 1 -70 -3 -67 -9 4 -5 -4 -9 -17 -9 -13 0 -28 -4 -33
-8 -6 -5 -43 -15 -83 -22 -49 -9 -76 -19 -82 -30 -5 -10 -27 -20 -49 -24 -22
-3 -44 -12 -48 -20 -4 -7 -18 -18 -30 -25 -19 -10 -23 -9 -23 4 0 15 74 75 92
75 5 0 24 11 42 25 18 14 38 25 44 25 7 0 12 7 12 15 0 12 7 14 26 9 16 -4 29
-2 34 5 12 20 138 42 252 44 60 1 108 3 108 4 0 11 -61 30 -81 26 -15 -3 -39
2 -55 12 -24 13 -25 15 -6 12 12 -3 22 -1 22 3 0 5 -21 12 -47 16 -26 4 -62
13 -79 20 -17 7 -34 10 -38 7 -8 -9 14 -33 30 -33 7 0 20 -10 28 -22 15 -22
15 -23 -27 -35 -23 -7 -61 -11 -84 -10 -28 2 -44 -2 -48 -11 -3 -7 -9 -11 -14
-8 -4 3 -19 -3 -31 -14 -13 -11 -31 -20 -41 -20 -10 0 -20 -4 -23 -9 -3 -5
-45 -14 -93 -20 -49 -7 -96 -16 -105 -21 -23 -13 -61 -13 -75 1 -7 7 -16 5
-28 -8 -10 -10 -20 -13 -22 -8 -2 8 -144 11 -163 4 -3 -1 -18 -3 -35 -5 -16
-1 -49 -7 -73 -12 -44 -10 -69 1 -31 13 17 6 19 9 8 16 -12 8 -12 11 1 19 8 5
18 11 22 12 10 4 -13 78 -24 78 -4 0 -8 18 -8 40 l0 40 -40 0 c-32 0 -40 4
-40 18 0 14 -15 23 -60 37 -34 10 -57 21 -51 24 5 4 3 22 -6 44 -14 34 -18 37
-56 37 -39 0 -40 0 -22 20 17 19 17 20 -10 30 -14 5 -31 8 -35 5 -5 -3 -16 7
-24 22 -15 30 -60 73 -76 73 -6 0 -10 8 -10 18 0 23 -25 47 -62 61 -16 6 -26
16 -23 23 6 16 -52 41 -61 27 -11 -18 -26 -8 -20 14 4 19 -2 27 -40 50 -26 15
-48 36 -51 45 -2 9 -33 35 -68 57 -36 22 -65 45 -65 51 0 7 -12 20 -27 30 -16
10 -34 24 -41 31 -7 7 -22 13 -33 13 -10 0 -19 5 -19 10 0 6 -7 10 -15 10 -14
0 -61 25 -75 40 -11 11 -80 39 -114 45 -20 4 -36 10 -36 14 0 6 -62 26 -95 31
-5 1 -14 5 -20 10 -5 4 -35 11 -65 15 -79 11 -109 27 -36 19 69 -7 207 -41
221 -55 5 -5 17 -9 27 -9 10 0 64 -22 121 -50 57 -27 117 -54 133 -60 l29 -10
-25 20 c-22 18 -73 44 -190 99 -19 9 -37 19 -40 22 -5 7 -74 37 -88 39 -29 4
-51 14 -49 24 1 6 -8 10 -20 9 -13 -2 -23 1 -23 6 0 6 -16 15 -35 22 -19 7
-35 18 -35 24 0 5 -18 23 -40 39 -22 17 -40 37 -40 45 0 9 -23 39 -50 66 -28
28 -53 58 -56 68 -3 10 -18 20 -34 24 -19 3 -32 15 -40 34 -7 16 -16 29 -21
29 -5 0 -14 11 -19 25 -6 17 -20 27 -40 31 -23 5 -42 23 -77 73 -26 36 -67 86
-91 110 -24 24 -68 85 -98 135 -30 50 -59 98 -64 106 -67 108 -153 256 -160
275 -5 14 -14 25 -20 25 -6 0 -8 -4 -5 -10 3 -5 -1 -23 -10 -40 -9 -17 -13
-35 -10 -39 3 -5 1 -11 -5 -13 -6 -2 -23 -55 -40 -118 -34 -131 -105 -341
-119 -349 -5 -3 -11 -17 -14 -31 -4 -24 -4 -24 -6 3 0 15 6 44 14 64 8 19 15
36 15 38 0 1 -13 2 -30 2 -23 0 -27 -3 -19 -13 7 -9 7 -19 0 -31 -9 -17 -11
-16 -21 7 -10 25 -10 25 -6 -4 4 -32 -13 -90 -21 -68 -7 18 -23 4 -23 -21 0
-18 -2 -19 -10 -7 -8 12 -10 11 -10 -7 0 -13 -3 -23 -8 -23 -4 0 -9 27 -10 60
-3 52 0 64 20 85 13 14 31 25 41 25 9 0 17 7 17 15 0 8 5 15 10 15 6 0 10 7
10 15 0 10 10 15 30 15 17 0 30 5 30 10 0 6 -9 10 -20 10 -17 0 -20 7 -20 40
0 34 3 40 22 40 21 0 21 0 3 20 -18 20 -18 21 3 27 16 4 23 15 27 42 3 20 10
54 16 76 6 22 11 54 11 72 0 28 3 32 33 37 30 6 35 12 41 43 7 36 -2 63 -24
71 -8 2 -12 -10 -12 -37 0 -35 -3 -41 -21 -41 -11 0 -19 3 -17 8 2 4 10 20 18
35 13 27 12 30 -10 48 -27 20 -50 25 -50 10 0 -5 5 -11 12 -13 9 -3 9 -6 0
-12 -7 -4 -12 -2 -12 3 0 6 -11 11 -23 11 -13 0 -32 9 -42 20 -12 13 -31 20
-57 20 -36 0 -38 -2 -38 -30z m-1225 -780 c3 -5 1 -10 -4 -10 -6 0 -11 5 -11
10 0 6 2 10 4 10 3 0 8 -4 11 -10z m-2297 -284 c-8 -6 -17 -18 -21 -26 -3 -9
-6 -5 -6 11 -1 31 6 40 26 32 14 -5 14 -8 1 -17z m1136 -42 c17 -15 35 -33 39
-40 11 -20 -21 -7 -56 23 -16 13 -33 23 -38 23 -5 0 -9 5 -9 10 0 18 32 10 64
-16z m-213 -116 c-9 -25 -31 -36 -31 -16 0 15 19 38 32 38 4 0 4 -10 -1 -22z
m112 -163 c0 -6 -7 -11 -16 -13 -12 -3 -15 1 -11 13 7 17 25 17 27 0z m267
-202 c0 -16 -10 -16 -32 1 -28 21 -23 36 7 23 14 -7 25 -18 25 -24z m-140 -13
c0 -5 -5 -10 -11 -10 -5 0 -7 5 -4 10 3 6 8 10 11 10 2 0 4 -4 4 -10z m61 -63
c-13 -13 -26 -3 -16 12 3 6 11 8 17 5 6 -4 6 -10 -1 -17z m139 -42 c0 -2 -9
-9 -20 -15 -16 -9 -20 -8 -20 5 0 8 9 15 20 15 11 0 20 -2 20 -5z m1138 -2
c-10 -2 -26 -2 -35 0 -10 3 -2 5 17 5 19 0 27 -2 18 -5z m-615 -60 c-20 -7
-15 -23 9 -32 l22 -8 -23 -13 c-18 -9 -25 -9 -31 0 -12 19 1 60 19 59 10 0 11
-2 4 -6z m-436 -25 c-3 -8 -6 -5 -6 6 -1 11 2 17 5 13 3 -3 4 -12 1 -19z m551
10 c-7 -20 -58 -23 -58 -4 0 11 10 16 31 16 20 0 29 -4 27 -12z m132 -8 c0 -9
-31 -23 -37 -16 -3 3 1 11 8 19 14 15 29 13 29 -3z m-637 -20 c-3 -11 -7 -20
-9 -20 -2 0 -4 9 -4 20 0 11 4 20 9 20 5 0 7 -9 4 -20z m781 11 c3 -5 -3 -11
-13 -14 -14 -3 -18 -1 -14 9 6 16 19 18 27 5z m-234 -11 c0 -5 -4 -10 -10 -10
-5 0 -10 5 -10 10 0 6 5 10 10 10 6 0 10 -4 10 -10z m36 -28 c-10 -10 -29 15
-21 28 6 9 10 8 17 -4 6 -10 7 -20 4 -24z m-110 -2 c6 -6 29 -12 53 -14 23 -2
46 -7 49 -11 7 -7 -60 -1 -103 9 -11 2 -23 5 -27 5 -5 1 -8 6 -8 11 0 13 23
13 36 0z m-999 -6 c-3 -3 -12 -4 -19 -1 -8 3 -5 6 6 6 11 1 17 -2 13 -5z
m1133 -24 c0 -5 -4 -10 -10 -10 -5 0 -10 5 -10 10 0 6 5 10 10 10 6 0 10 -4
10 -10z m30 0 c0 -5 -4 -10 -10 -10 -5 0 -10 5 -10 10 0 6 5 10 10 10 6 0 10
-4 10 -10z m35 -17 c-8 -8 -15 -19 -15 -24 0 -5 -4 -9 -10 -9 -5 0 -10 7 -10
15 0 8 5 15 10 15 6 0 10 7 10 15 0 9 6 12 15 9 13 -5 13 -8 0 -21z m-1255 2
c0 -8 -7 -15 -15 -15 -26 0 -18 20 13 29 1 1 2 -6 2 -14z m1770 -5 c0 -5 -4
-10 -10 -10 -5 0 -10 5 -10 10 0 6 5 10 10 10 6 0 10 -4 10 -10z m-650 -10 c0
-5 -4 -10 -10 -10 -5 0 -10 5 -10 10 0 6 5 10 10 10 6 0 10 -4 10 -10z m-1235
-30 c-3 -5 -12 -10 -18 -10 -7 0 -6 4 3 10 19 12 23 12 15 0z m100 -30 c3 -5
-1 -10 -9 -10 -9 0 -16 5 -16 10 0 6 4 10 9 10 6 0 13 -4 16 -10z m75 -4 c0
-2 -9 -6 -20 -9 -11 -3 -20 -1 -20 4 0 5 9 9 20 9 11 0 20 -2 20 -4z m95 -26
c-3 -5 -10 -10 -16 -10 -5 0 -9 5 -9 10 0 6 7 10 16 10 8 0 12 -4 9 -10z m-78
-6 c-3 -3 -12 -4 -19 -1 -8 3 -5 6 6 6 11 1 17 -2 13 -5z m-47 -34 c0 -5 -10
-10 -22 -10 -19 0 -20 2 -8 10 19 13 30 13 30 0z m220 -4 c0 -3 -4 -8 -10 -11
-5 -3 -10 -1 -10 4 0 6 5 11 10 11 6 0 10 -2 10 -4z m-290 -30 c0 -8 -4 -18
-10 -21 -5 -3 -10 3 -10 14 0 12 5 21 10 21 6 0 10 -6 10 -14z m-99 -81 c6
-38 9 -83 6 -102 -4 -24 -2 -33 9 -33 10 0 14 14 15 53 1 28 3 59 4 67 1 8 3
21 4 28 2 24 21 11 21 -15 0 -16 2 -46 5 -68 10 -93 13 -233 5 -245 -14 -22
-23 -5 -27 52 -2 29 -5 65 -6 80 -1 15 -6 26 -12 25 -11 -2 -8 -170 4 -227 10
-51 3 -73 -21 -67 -19 5 -20 3 -14 -41 17 -122 18 -140 6 -147 -15 -10 -19 -4
-24 36 -3 19 -5 34 -6 34 -2 0 -4 14 -19 120 -7 44 -16 91 -21 105 -14 37 -27
237 -21 330 l1 25 14 -26 c7 -14 14 -52 15 -85 5 -162 10 -213 25 -254 9 -25
16 -53 16 -63 0 -10 5 -15 10 -12 6 4 8 11 4 16 -6 10 -12 104 -19 289 -2 63
-5 129 -6 145 -5 94 17 80 32 -20z m164 65 c-3 -5 -11 -10 -16 -10 -6 0 -7 5
-4 10 3 6 11 10 16 10 6 0 7 -4 4 -10z m265 -180 c0 -5 -5 -10 -11 -10 -5 0
-7 5 -4 10 3 6 8 10 11 10 2 0 4 -4 4 -10z m4940 -154 c0 -3 -4 -8 -10 -11 -5
-3 -10 -1 -10 4 0 6 5 11 10 11 6 0 10 -2 10 -4z m97 -18 c-3 -8 -6 -5 -6 6
-1 11 2 17 5 13 3 -3 4 -12 1 -19z m-5337 -56 c0 -5 -7 -9 -15 -9 -8 0 -15 4
-15 9 0 4 7 8 15 8 8 0 15 -4 15 -8z m-78 -159 c-1 -11 6 -45 18 -75 11 -29
22 -67 24 -83 3 -17 12 -49 20 -72 9 -23 13 -49 10 -58 -3 -8 -1 -15 5 -15 6
0 11 -17 11 -39 0 -22 7 -46 15 -54 8 -8 11 -17 8 -21 -3 -3 0 -12 6 -20 7 -8
13 -29 13 -47 1 -18 7 -44 15 -58 7 -14 13 -36 13 -48 0 -13 5 -23 11 -23 6 0
8 -8 4 -19 -3 -11 -1 -22 5 -26 6 -4 9 -13 6 -21 -3 -8 3 -30 14 -50 11 -19
17 -40 14 -46 -4 -6 -1 -14 5 -18 9 -5 9 -13 0 -33 -7 -15 -16 -27 -21 -27
-13 0 -28 47 -28 90 0 25 -5 40 -16 44 -8 3 -13 10 -10 14 13 21 -27 139 -52
155 -9 6 -10 12 -3 21 12 15 9 53 -7 83 -7 12 -12 31 -12 42 0 11 -4 23 -10
26 -5 3 -10 24 -10 45 0 22 -4 49 -9 62 -5 13 -13 32 -17 43 -14 36 -51 230
-46 243 7 20 27 8 24 -15z m38 7 c0 -5 -5 -10 -11 -10 -5 0 -7 5 -4 10 3 6 8
10 11 10 2 0 4 -4 4 -10z m30 -50 c0 -5 -5 -10 -11 -10 -5 0 -7 5 -4 10 3 6 8
10 11 10 2 0 4 -4 4 -10z m-1110 -31 c0 -5 -4 -9 -10 -9 -5 0 -10 7 -10 16 0
8 5 12 10 9 6 -3 10 -10 10 -16z m1479 5 c6 4 14 0 18 -9 7 -20 -12 -35 -44
-35 -13 0 -23 -4 -23 -10 0 -14 -27 -12 -33 3 -7 19 12 47 28 41 9 -4 18 1 21
11 5 12 9 13 14 5 4 -7 13 -9 19 -6z m-345 -19 c3 -8 1 -15 -4 -15 -6 0 -10 7
-10 15 0 8 2 15 4 15 2 0 6 -7 10 -15z m-184 -310 c0 -5 -5 -3 -10 5 -5 8 -10
20 -10 25 0 6 5 3 10 -5 5 -8 10 -19 10 -25z m-413 -37 c-3 -7 -5 -2 -5 12 0
14 2 19 5 13 2 -7 2 -19 0 -25z m10 -85 c5 -50 -4 -83 -23 -83 -10 0 -14 6
-10 18 3 9 8 39 12 65 7 54 16 54 21 0z m-867 -33 c0 -5 -7 -10 -15 -10 -8 0
-15 5 -15 10 0 6 7 10 15 10 8 0 15 -4 15 -10z m-21 -63 c1 -4 -5 -2 -13 5 -7
7 -11 19 -8 27 4 11 7 10 13 -5 4 -10 8 -23 8 -27z m766 -162 c4 -44 8 -109
10 -145 2 -36 6 -90 10 -120 15 -126 14 -140 -10 -140 -15 0 -27 55 -25 115 1
22 -1 103 -4 180 -6 121 -1 204 9 193 2 -2 6 -39 10 -83z m-69 -143 c7 -84 1
-132 -16 -132 -7 0 -8 123 -1 209 3 36 11 -3 17 -77z m1759 -479 c17 -22 -1
-66 -23 -58 -9 3 -19 0 -23 -6 -4 -7 -14 -9 -23 -6 -12 5 -15 14 -10 34 9 36
11 38 28 24 12 -10 16 -8 21 8 8 25 14 26 30 4z m-55 -238 c0 -20 -51 -50 -60
-35 -5 8 -9 7 -14 -5 -4 -11 -12 -15 -23 -11 -9 4 -20 1 -25 -6 -6 -10 -10
-10 -18 2 -8 13 -10 12 -10 -2 0 -21 -26 -24 -33 -5 -3 7 -6 5 -6 -5 -1 -20
-16 -24 -27 -6 -5 7 -11 5 -21 -8 -11 -15 -16 -16 -22 -6 -7 11 -10 10 -15 -3
-3 -10 -12 -15 -20 -12 -8 3 -20 -1 -27 -9 -8 -10 -15 -11 -24 -4 -9 8 -14 7
-18 -3 -4 -10 -18 -13 -41 -12 -20 2 -39 -2 -43 -8 -12 -18 -52 -39 -63 -32
-5 3 -11 1 -15 -4 -3 -6 -12 -8 -19 -5 -8 3 -17 0 -21 -5 -3 -6 -11 -9 -16 -5
-5 3 -16 0 -24 -6 -8 -6 -19 -9 -24 -6 -5 4 -13 1 -16 -5 -4 -5 -13 -8 -21 -5
-8 3 -17 -1 -21 -9 -5 -13 -7 -13 -19 2 -12 17 -13 16 -14 -5 0 -19 -4 -22
-20 -17 -12 4 -20 2 -20 -5 0 -6 -4 -8 -10 -5 -5 3 -21 -2 -35 -11 -24 -15
-25 -15 -25 2 0 30 28 56 65 59 6 0 16 4 23 8 6 5 17 5 22 2 6 -3 10 1 10 10
0 12 6 15 20 10 11 -3 20 -2 20 2 0 5 15 10 33 10 17 1 46 8 62 17 17 9 35 16
42 16 7 0 27 8 45 18 18 10 48 17 66 16 18 -1 35 2 38 7 3 5 11 9 19 9 8 0 26
5 42 12 15 6 34 10 41 9 6 -1 12 3 12 9 0 5 9 10 19 10 11 0 23 5 27 11 4 7
10 7 16 1 6 -6 21 -4 40 6 17 8 50 17 72 19 23 2 42 7 44 12 4 13 52 0 52 -14z
m-86 -249 c-3 -14 -12 -26 -19 -26 -7 0 -16 -6 -19 -12 -5 -10 -7 -10 -12 0
-5 10 -9 10 -20 1 -7 -6 -20 -9 -29 -6 -8 4 -19 -1 -25 -11 -8 -15 -11 -15
-19 -2 -9 12 -11 12 -17 -3 -4 -10 -13 -16 -20 -13 -7 3 -16 1 -20 -5 -3 -5
-14 -7 -25 -4 -10 4 -19 2 -19 -3 0 -6 -16 -10 -36 -10 -19 0 -43 -6 -52 -14
-9 -8 -30 -14 -47 -13 -16 1 -41 -5 -55 -12 -14 -7 -33 -13 -42 -13 -10 0 -18
-5 -18 -11 0 -6 -9 -9 -20 -6 -13 3 -21 -1 -25 -14 -8 -24 -25 -25 -26 -1 0
10 -3 12 -6 5 -7 -20 -33 -15 -33 5 0 24 19 42 36 35 8 -3 14 0 14 7 0 6 5 8
12 4 6 -4 17 1 24 10 7 10 15 13 18 7 8 -12 66 16 66 31 0 7 4 7 13 -1 8 -6
17 -8 20 -5 4 4 22 8 40 10 19 1 50 12 70 23 24 13 39 17 43 10 4 -8 10 -7 17
0 6 6 19 11 29 11 10 0 18 5 18 11 0 6 7 8 16 5 9 -4 23 -1 30 5 8 7 28 9 49
5 29 -6 35 -4 35 10 0 9 6 14 13 11 8 -3 20 -1 28 3 18 12 21 7 13 -24z m-616
-169 c3 -21 -1 -27 -16 -27 -11 0 -23 -8 -26 -17 -6 -15 -8 -15 -17 -3 -8 13
-10 13 -19 0 -9 -13 -10 -13 -10 0 -1 12 -3 12 -14 -2 -7 -10 -28 -18 -47 -20
-19 -1 -37 -6 -40 -11 -4 -6 -30 -12 -58 -15 -28 -2 -51 -8 -51 -13 0 -5 -3
-8 -7 -7 -5 0 -15 -1 -23 -5 -33 -12 -88 -15 -99 -4 -8 8 -11 8 -11 0 0 -9
-14 -17 -70 -38 -3 -1 -13 -5 -22 -9 -10 -4 -23 -6 -30 -3 -7 2 -30 -2 -50
-10 -21 -9 -44 -13 -52 -10 -7 3 -19 0 -26 -6 -10 -9 -14 -9 -17 2 -3 7 -8 9
-12 5 -3 -5 -20 -16 -38 -26 -27 -14 -32 -14 -37 -2 -7 18 13 52 34 57 8 2 23
-2 33 -7 14 -9 20 -7 28 7 8 14 21 18 52 16 23 -1 51 2 62 8 11 6 32 13 48 17
15 3 27 10 27 15 0 4 11 7 25 6 15 -2 29 3 35 13 5 10 10 12 10 6 0 -18 50
-12 50 5 0 11 3 12 11 4 12 -12 39 -7 39 8 0 5 -7 9 -15 9 -8 0 -15 5 -15 11
0 7 7 8 18 3 24 -11 111 -13 117 -3 3 4 12 6 20 2 8 -3 15 0 15 6 0 7 6 11 13
10 34 -4 57 3 80 26 18 18 27 22 30 13 4 -10 7 -10 15 1 5 7 15 10 21 7 6 -4
11 -2 11 4 0 23 25 3 28 -23z m7342 3 c0 -5 -4 -10 -10 -10 -5 0 -10 5 -10 10
0 6 5 10 10 10 6 0 10 -4 10 -10z m-285 -120 c3 -5 1 -10 -4 -10 -6 0 -11 5
-11 10 0 6 2 10 4 10 3 0 8 -4 11 -10z m-7320 -240 c4 -6 -10 -9 -34 -7 -54 4
-65 17 -13 17 22 0 44 -4 47 -10z m855 -911 c0 -11 -27 -12 -34 0 -3 4 -3 11
0 14 8 8 34 -3 34 -14z m-620 -384 c0 -27 -16 -42 -23 -23 -4 8 -8 4 -12 -9
-6 -17 -15 -23 -36 -23 -16 0 -29 5 -29 13 0 6 -5 4 -11 -6 -7 -11 -17 -15
-32 -12 -13 4 -36 -1 -52 -9 -17 -9 -51 -19 -77 -22 -27 -4 -48 -10 -48 -15 0
-10 -82 -5 -99 5 -7 4 -11 -1 -11 -13 0 -22 -19 -30 -21 -8 0 8 -2 8 -5 1 -3
-6 -20 -10 -39 -8 -19 1 -35 -1 -35 -5 0 -3 -16 -6 -36 -5 -20 1 -50 -2 -67
-7 -18 -5 -63 -12 -102 -15 -38 -3 -74 -8 -79 -12 -6 -3 -41 -5 -79 -5 -47 0
-70 -3 -73 -12 -3 -7 -21 -13 -40 -13 -34 0 -35 1 -32 37 3 37 6 38 46 26 16
-5 22 -2 22 9 0 15 21 21 60 18 8 -1 30 3 49 8 19 5 39 6 44 3 19 -11 119 -10
123 2 3 6 21 10 42 9 23 0 41 5 49 15 11 15 12 15 18 0 8 -21 45 -13 45 10 1
14 2 14 14 -2 13 -17 15 -17 31 0 20 20 57 25 67 9 5 -7 8 -4 8 7 0 10 8 17
20 17 11 0 20 -7 20 -15 0 -8 5 -15 10 -15 6 0 10 9 10 20 0 23 18 27 26 6 7
-17 44 -9 44 10 0 8 5 14 10 14 6 0 10 -4 10 -10 0 -19 39 -10 51 11 9 18 13
19 21 8 8 -11 11 -11 15 -1 4 10 8 10 19 1 11 -9 14 -8 14 5 0 21 9 20 27 -1
10 -13 16 -14 19 -6 3 7 12 9 20 6 8 -3 14 1 14 9 0 9 12 14 35 15 30 1 35 -2
35 -22z m-50 -149 c0 -27 -46 -64 -53 -43 -3 9 -7 9 -18 1 -26 -21 -92 -35
-101 -21 -6 9 -11 8 -19 -5 -8 -15 -13 -16 -30 -5 -17 10 -22 9 -33 -5 -7 -10
-16 -14 -20 -10 -4 4 -14 -2 -22 -12 -8 -11 -14 -15 -14 -10 0 16 -82 15 -94
-2 -9 -11 -21 -13 -58 -5 -34 6 -48 5 -48 -3 0 -6 -12 -11 -27 -12 -16 0 -38
-4 -49 -7 -16 -6 -23 -3 -28 9 -11 29 15 42 109 54 92 12 126 17 135 20 3 1
13 1 23 0 10 -1 24 6 31 16 8 10 16 13 19 7 10 -17 127 7 127 25 0 13 3 13 12
4 14 -14 54 -16 62 -4 3 5 19 7 36 4 25 -4 32 -1 37 17 7 26 23 17 23 -13z
m-1410 -138 c0 -49 -5 -47 -14 5 -4 23 -3 37 4 37 5 0 10 -19 10 -42z m-124 6
c-3 -9 -6 -22 -6 -30 0 -8 -4 -14 -8 -14 -4 0 -7 12 -6 28 3 34 2 32 15 32 6
0 8 -7 5 -16z m55 -51 c-9 -15 -10 -13 -11 13 0 17 3 34 8 38 11 12 14 -32 3
-51z m1419 -2 c0 -26 -40 -56 -76 -57 -22 -1 -40 -3 -41 -3 -2 -1 -6 -1 -10
-2 -5 0 -14 -6 -21 -12 -10 -8 -16 -7 -24 4 -7 10 -11 11 -14 2 -3 -7 -12 -9
-20 -6 -9 3 -14 -1 -14 -12 0 -12 -5 -15 -21 -10 -12 4 -28 8 -35 9 -7 1 -17
5 -20 9 -4 4 -13 2 -21 -4 -10 -9 -17 -8 -29 1 -13 11 -16 10 -21 -8 -6 -23
-33 -31 -33 -9 0 8 -3 8 -8 1 -11 -16 -42 -25 -42 -13 0 7 -7 8 -17 4 -18 -7
-51 -11 -153 -20 -30 -3 -71 -7 -90 -10 -19 -2 -51 -6 -71 -8 -20 -2 -41 -7
-48 -11 -18 -12 -41 1 -41 23 0 33 -1 33 201 44 30 2 60 6 66 10 5 3 45 8 87
11 43 3 84 10 92 17 11 9 14 7 14 -11 0 -23 0 -23 21 -4 21 19 35 22 124 27
28 2 56 6 63 10 6 5 17 5 22 2 6 -3 10 -2 10 4 0 6 14 9 33 7 17 -2 38 0 44 6
7 6 24 7 37 4 14 -3 28 -2 31 4 8 12 25 13 25 1z m-1485 -43 c-3 -18 -8 -58
-10 -88 -6 -67 -9 -90 -24 -159 -6 -30 -9 -56 -6 -59 3 -3 0 -11 -6 -18 -6 -8
-9 -20 -6 -29 4 -8 2 -17 -3 -20 -5 -3 -10 -16 -10 -28 0 -41 -5 -72 -13 -84
-5 -7 -5 -17 -2 -23 3 -5 1 -19 -5 -30 -8 -16 -8 -25 0 -35 8 -9 8 -15 0 -20
-6 -4 -9 -18 -8 -32 2 -14 -2 -28 -8 -30 -17 -6 -25 55 -14 101 5 22 6 44 4
48 -3 5 -3 17 1 26 4 9 8 37 9 60 2 24 7 47 12 50 6 4 11 16 11 27 3 49 13
108 21 119 5 6 10 30 11 52 1 23 6 57 11 75 6 19 10 50 10 69 0 30 14 60 27
60 2 0 1 -15 -2 -32z m71 -25 c-3 -27 -8 -79 -11 -118 -7 -98 -14 -159 -25
-240 -5 -38 -12 -86 -14 -105 -3 -19 -7 -50 -11 -67 -4 -24 -2 -33 7 -33 8 -1
6 -6 -6 -15 -10 -8 -16 -20 -13 -27 2 -8 -1 -47 -8 -88 -8 -46 -9 -79 -4 -86
6 -7 6 -21 0 -35 -5 -13 -10 -22 -11 -19 -13 43 -21 190 -12 205 3 5 6 30 7
55 0 25 4 50 8 57 4 6 10 42 12 79 3 38 12 96 20 129 11 51 37 247 44 348 1 4
6 7 12 7 7 0 9 -16 5 -47z m1099 -240 c5 -20 1 -31 -16 -47 -14 -14 -23 -17
-26 -9 -3 9 -12 9 -30 2 -15 -5 -33 -7 -41 -4 -8 3 -22 -1 -31 -8 -18 -16 -51
-19 -51 -4 0 5 -6 4 -13 -2 -8 -6 -17 -8 -20 -5 -3 3 -11 3 -17 -1 -6 -4 -37
-9 -68 -12 -76 -6 -150 -13 -187 -18 -50 -7 -198 -17 -230 -16 -16 0 -45 -4
-63 -9 -38 -10 -49 3 -38 46 5 19 11 24 26 19 11 -4 20 -3 20 2 0 4 25 8 56 8
39 0 58 4 65 15 4 8 9 10 9 4 0 -12 102 -10 121 1 5 4 9 1 9 -6 0 -8 5 -7 17
2 12 11 17 11 20 2 4 -10 8 -9 20 2 12 12 18 13 29 4 11 -9 14 -9 14 1 0 7 6
10 14 7 7 -3 19 0 25 6 6 6 11 7 11 2 0 -6 5 -3 10 5 9 13 13 12 26 -5 11 -13
18 -16 21 -8 2 7 10 10 18 7 7 -3 16 0 20 6 6 9 10 9 16 -1 6 -10 9 -11 9 -1
0 19 20 14 21 -5 1 -17 2 -17 6 0 5 19 39 23 45 5 3 -8 11 -5 24 8 21 21 84
27 84 7 0 -21 38 -15 45 7 9 28 22 25 30 -7z m-1255 -449 c0 -8 -4 -12 -10 -9
-5 3 -10 10 -10 16 0 5 5 9 10 9 6 0 10 -7 10 -16z m-1000 -134 c0 -12 -28
-25 -36 -17 -9 9 6 27 22 27 8 0 14 -5 14 -10z"/>
<path d="M9505 8140 c3 -5 8 -10 11 -10 2 0 4 5 4 10 0 6 -5 10 -11 10 -5 0
-7 -4 -4 -10z"/>
<path d="M11240 8020 c0 -5 5 -10 10 -10 6 0 10 5 10 10 0 6 -4 10 -10 10 -5
0 -10 -4 -10 -10z"/>
<path d="M9385 8008 c-29 -16 -29 -16 -15 -33 16 -19 50 -20 50 0 0 8 5 15 11
15 8 0 8 5 -1 15 -15 18 -19 18 -45 3z"/>
<path d="M11358 8013 c7 -3 16 -2 19 1 4 3 -2 6 -13 5 -11 0 -14 -3 -6 -6z"/>
<path d="M11300 8003 c0 -4 5 -15 10 -23 8 -13 10 -13 10 2 0 9 -4 20 -10 23
-5 3 -10 3 -10 -2z"/>
<path d="M7635 7980 c-3 -5 -1 -10 4 -10 6 0 11 5 11 10 0 6 -2 10 -4 10 -3 0
-8 -4 -11 -10z"/>
<path d="M10762 7920 c0 -14 2 -19 5 -12 2 6 2 18 0 25 -3 6 -5 1 -5 -13z"/>
<path d="M7060 7901 c0 -6 5 -13 10 -16 6 -3 10 1 10 9 0 9 -4 16 -10 16 -5 0
-10 -4 -10 -9z"/>
<path d="M10756 7881 c-4 -5 -2 -12 3 -15 5 -4 12 -2 15 3 4 5 2 12 -3 15 -5
4 -12 2 -15 -3z"/>
<path d="M7550 7810 c-13 -8 -12 -10 3 -10 9 0 17 5 17 10 0 12 -1 12 -20 0z"/>
<path d="M10720 7769 c0 -11 5 -17 10 -14 6 3 10 13 10 21 0 8 -4 14 -10 14
-5 0 -10 -9 -10 -21z"/>
<path d="M7821 7711 c-7 -5 -9 -11 -5 -13 14 -8 84 3 84 13 0 11 -61 11 -79 0z"/>
<path d="M7761 7687 c-6 -8 -8 -17 -5 -20 9 -8 44 11 44 23 0 15 -26 12 -39
-3z"/>
<path d="M11385 7589 c-10 -15 3 -25 16 -12 7 7 7 13 1 17 -6 3 -14 1 -17 -5z"/>
<path d="M3535 7580 c-3 -5 -1 -10 4 -10 6 0 11 5 11 10 0 6 -2 10 -4 10 -3 0
-8 -4 -11 -10z"/>
<path d="M11350 7549 c0 -5 5 -7 10 -4 6 3 10 8 10 11 0 2 -4 4 -10 4 -5 0
-10 -5 -10 -11z"/>
<path d="M3460 7510 c-6 -11 -8 -20 -6 -20 3 0 10 9 16 20 6 11 8 20 6 20 -3
0 -10 -9 -16 -20z"/>
<path d="M11318 7523 c7 -3 16 -2 19 1 4 3 -2 6 -13 5 -11 0 -14 -3 -6 -6z"/>
<path d="M7978 7493 c7 -3 16 -2 19 1 4 3 -2 6 -13 5 -11 0 -14 -3 -6 -6z"/>
<path d="M11242 7480 c0 -14 2 -19 5 -12 2 6 2 18 0 25 -3 6 -5 1 -5 -13z"/>
<path d="M11795 7469 c-10 -15 3 -25 16 -12 7 7 7 13 1 17 -6 3 -14 1 -17 -5z"/>
<path d="M11744 7435 c-4 -8 -3 -23 1 -32 6 -16 8 -15 20 7 8 14 14 28 15 33
0 14 -31 7 -36 -8z"/>
<path d="M11676 7412 c-4 -13 -5 -26 -2 -29 10 -11 18 4 14 29 l-4 23 -8 -23z"/>
<path d="M8265 7401 c-3 -5 -1 -12 5 -16 5 -3 10 1 10 9 0 18 -6 21 -15 7z"/>
<path d="M9351 7300 c-22 -20 -28 -30 -18 -30 9 0 19 5 22 10 4 6 14 8 23 6
24 -8 44 8 36 27 -9 24 -24 21 -63 -13z"/>
<path d="M8540 7274 c0 -8 5 -12 10 -9 6 3 10 10 10 16 0 5 -4 9 -10 9 -5 0
-10 -7 -10 -16z"/>
<path d="M9290 7280 c0 -5 5 -10 10 -10 6 0 10 5 10 10 0 6 -4 10 -10 10 -5 0
-10 -4 -10 -10z"/>
<path d="M9095 7120 c3 -5 11 -10 16 -10 6 0 7 5 4 10 -3 6 -11 10 -16 10 -6
0 -7 -4 -4 -10z"/>
<path d="M5933 7113 c-18 -7 -17 -53 1 -53 7 0 19 7 26 15 7 8 19 15 26 15 8
0 14 7 14 15 0 15 -39 20 -67 8z"/>
<path d="M9390 7060 c0 -5 5 -10 11 -10 5 0 7 5 4 10 -3 6 -8 10 -11 10 -2 0
-4 -4 -4 -10z"/>
<path d="M5980 7050 c-13 -8 -12 -10 3 -10 9 0 17 5 17 10 0 12 -1 12 -20 0z"/>
<path d="M9405 7020 c3 -5 8 -10 11 -10 2 0 4 5 4 10 0 6 -5 10 -11 10 -5 0
-7 -4 -4 -10z"/>
<path d="M9370 6990 c0 -5 9 -10 19 -10 11 0 23 5 26 10 4 6 -5 10 -19 10 -14
0 -26 -4 -26 -10z"/>
<path d="M9450 6960 c0 -5 7 -10 16 -10 8 0 12 5 9 10 -3 6 -10 10 -16 10 -5
0 -9 -4 -9 -10z"/>
<path d="M3680 6940 c0 -19 3 -21 12 -12 9 9 9 15 0 24 -9 9 -12 7 -12 -12z"/>
<path d="M9388 6923 c7 -3 16 -2 19 1 4 3 -2 6 -13 5 -11 0 -14 -3 -6 -6z"/>
<path d="M3548 6900 c-7 -11 -20 -20 -30 -20 -11 0 -18 -12 -23 -40 -5 -31
-11 -40 -27 -40 -19 0 -20 -5 -16 -86 2 -47 1 -87 -4 -90 -4 -3 -8 0 -8 5 0 6
-7 11 -15 11 -8 0 -12 -6 -9 -15 3 -8 -4 -28 -16 -45 -12 -16 -18 -34 -15 -40
3 -6 -1 -13 -9 -16 -9 -3 -16 -15 -16 -25 0 -10 -7 -19 -15 -19 -8 0 -15 -4
-15 -9 0 -5 -3 -16 -6 -25 -10 -25 14 -19 39 10 81 95 183 184 212 184 13 0
85 72 85 84 0 5 17 23 37 41 l37 32 -27 7 c-22 5 -27 12 -27 37 0 17 6 32 15
36 29 10 -21 35 -65 32 -21 -2 -42 0 -46 4 -12 12 -23 8 -36 -13z m147 -110
c-4 -6 -10 -8 -14 -6 -9 6 -51 -48 -51 -64 0 -6 -4 -9 -9 -6 -5 4 0 24 12 46
16 29 28 40 45 40 13 0 20 -4 17 -10z m-95 -80 c0 -5 -2 -10 -4 -10 -3 0 -8 5
-11 10 -3 6 -1 10 4 10 6 0 11 -4 11 -10z m-83 -76 c-3 -3 -12 -4 -19 -1 -8 3
-5 6 6 6 11 1 17 -2 13 -5z"/>
<path d="M9920 6900 c-8 -5 -12 -12 -9 -15 8 -8 39 5 39 16 0 11 -11 11 -30
-1z"/>
<path d="M10090 6897 c0 -8 7 -18 16 -21 11 -4 14 -1 12 11 -4 21 -28 30 -28
10z"/>
<path d="M8580 6890 c0 -5 9 -10 21 -10 11 0 17 5 14 10 -3 6 -13 10 -21 10
-8 0 -14 -4 -14 -10z"/>
<path d="M3720 6859 c0 -18 2 -19 15 -9 8 7 15 16 15 21 0 5 -7 9 -15 9 -9 0
-15 -9 -15 -21z"/>
<path d="M8638 6868 c5 -5 16 -8 23 -6 8 3 3 7 -10 11 -17 4 -21 3 -13 -5z"/>
<path d="M9852 6840 c-6 -11 -12 -31 -12 -45 0 -21 3 -23 23 -16 16 7 21 16
20 37 -3 37 -16 48 -31 24z"/>
<path d="M9586 6781 c-4 -7 -5 -15 -2 -18 9 -9 19 4 14 18 -4 11 -6 11 -12 0z"/>
<path d="M9855 6749 c-8 -23 -1 -34 14 -24 13 8 15 45 2 45 -5 0 -13 -9 -16
-21z"/>
<path d="M9810 6725 c0 -26 4 -35 16 -35 12 0 15 6 10 23 -3 12 -6 28 -6 35 0
6 -4 12 -10 12 -5 0 -10 -16 -10 -35z"/>
<path d="M3410 6716 c0 -2 7 -9 15 -16 12 -10 15 -10 15 4 0 9 -7 16 -15 16
-8 0 -15 -2 -15 -4z"/>
<path d="M9576 6701 c-4 -7 -5 -15 -2 -18 9 -9 19 4 14 18 -4 11 -6 11 -12 0z"/>
<path d="M9780 6654 c0 -8 5 -12 10 -9 6 3 10 10 10 16 0 5 -4 9 -10 9 -5 0
-10 -7 -10 -16z"/>
<path d="M10111 6576 c11 -12 69 -25 69 -15 0 5 -6 9 -12 9 -7 0 -24 3 -38 7
-14 3 -22 3 -19 -1z"/>
<path d="M10253 6534 c-10 -22 -9 -25 5 -22 9 2 18 13 20 26 5 30 -10 28 -25
-4z"/>
<path d="M10835 6529 c-4 -6 -5 -13 -2 -16 7 -7 27 6 27 18 0 12 -17 12 -25
-2z"/>
<path d="M3601 6414 c0 -11 3 -14 6 -6 3 7 2 16 -1 19 -3 4 -6 -2 -5 -13z"/>
<path d="M3302 6368 c-6 -6 -12 -22 -12 -34 0 -12 -7 -27 -15 -34 -17 -14 -20
-40 -6 -40 5 0 15 17 22 38 6 20 16 42 21 49 14 18 6 37 -10 21z"/>
<path d="M10680 6365 c-7 -8 -23 -15 -36 -15 -19 0 -24 -5 -24 -24 0 -13 -6
-27 -12 -29 -10 -4 -10 -6 -1 -6 6 -1 14 3 17 8 3 5 15 7 26 4 13 -4 22 1 26
13 4 11 13 26 21 36 8 9 10 18 5 22 -5 3 -15 -1 -22 -9z"/>
<path d="M10358 6363 c-10 -2 -18 -9 -18 -14 0 -13 13 -11 36 6 19 14 14 17
-18 8z"/>
<path d="M10710 6320 c0 -5 7 -10 16 -10 8 0 12 5 9 10 -3 6 -10 10 -16 10 -5
0 -9 -4 -9 -10z"/>
<path d="M3180 6285 c0 -8 5 -15 10 -15 6 0 10 7 10 15 0 8 -4 15 -10 15 -5 0
-10 -7 -10 -15z"/>
<path d="M10750 6284 c0 -8 5 -12 10 -9 6 4 8 11 5 16 -9 14 -15 11 -15 -7z"/>
<path d="M10915 6270 c-3 -5 -1 -10 4 -10 6 0 11 5 11 10 0 6 -2 10 -4 10 -3
0 -8 -4 -11 -10z"/>
<path d="M3161 6228 c0 -9 -4 -25 -7 -35 -5 -14 -4 -15 5 -7 7 7 11 22 8 35
-2 13 -5 16 -6 7z"/>
<path d="M3235 6220 c-4 -12 -5 -24 -2 -27 3 -2 8 5 12 17 4 12 5 24 2 27 -3
2 -8 -5 -12 -17z"/>
<path d="M10620 6211 c0 -10 30 -24 37 -17 3 3 2 9 -2 15 -8 13 -35 15 -35 2z"/>
<path d="M10755 6190 c-7 -11 19 -20 34 -10 9 5 7 9 -8 13 -12 3 -23 2 -26 -3z"/>
<path d="M11780 6068 c0 -12 3 -18 7 -14 11 10 12 36 2 36 -5 0 -9 -10 -9 -22z"/>
<path d="M11511 6054 c0 -11 3 -14 6 -6 3 7 2 16 -1 19 -3 4 -6 -2 -5 -13z"/>
<path d="M10555 6030 c3 -5 8 -10 11 -10 2 0 4 5 4 10 0 6 -5 10 -11 10 -5 0
-7 -4 -4 -10z"/>
<path d="M10775 6020 c3 -5 8 -10 11 -10 2 0 4 5 4 10 0 6 -5 10 -11 10 -5 0
-7 -4 -4 -10z"/>
<path d="M11677 6016 c-4 -9 -3 -15 1 -15 25 4 41 -4 47 -21 3 -11 10 -20 15
-20 5 0 12 9 15 20 3 11 13 20 21 20 8 0 14 5 14 10 0 6 -11 10 -24 10 -13 0
-37 3 -53 6 -22 4 -32 2 -36 -10z"/>
<path d="M11510 6000 c0 -11 5 -20 10 -20 6 0 10 9 10 20 0 11 -4 20 -10 20
-5 0 -10 -9 -10 -20z"/>
<path d="M11574 5982 c-12 -2 -28 -17 -37 -37 -11 -22 -24 -35 -36 -35 -11 0
-22 -6 -25 -12 -5 -10 -7 -10 -12 0 -9 19 -23 5 -17 -18 5 -19 23 -29 23 -12
0 4 15 14 34 20 19 7 37 19 40 27 3 8 12 15 19 15 8 0 19 12 26 26 14 30 13
31 -15 26z"/>
<path d="M9470 5976 c0 -10 28 -13 41 -5 10 6 7 9 -13 9 -16 0 -28 -2 -28 -4z"/>
<path d="M11920 5960 c0 -5 4 -10 9 -10 6 0 13 5 16 10 3 6 -1 10 -9 10 -9 0
-16 -4 -16 -10z"/>
<path d="M11295 5940 c-3 -5 -2 -10 4 -10 5 0 13 5 16 10 3 6 2 10 -4 10 -5 0
-13 -4 -16 -10z"/>
<path d="M10960 5930 c0 -5 5 -10 11 -10 5 0 7 5 4 10 -3 6 -8 10 -11 10 -2 0
-4 -4 -4 -10z"/>
<path d="M11075 5930 c-3 -5 -1 -10 4 -10 6 0 11 5 11 10 0 6 -2 10 -4 10 -3
0 -8 -4 -11 -10z"/>
<path d="M11572 5908 c6 -18 28 -21 28 -4 0 9 -7 16 -16 16 -9 0 -14 -5 -12
-12z"/>
<path d="M11180 5889 c0 -5 5 -7 10 -4 6 3 10 8 10 11 0 2 -4 4 -10 4 -5 0
-10 -5 -10 -11z"/>
<path d="M11402 5884 c4 -21 22 -23 26 -1 2 10 -3 17 -13 17 -10 0 -15 -6 -13
-16z"/>
<path d="M10960 5876 c0 -9 6 -16 14 -16 8 0 16 -6 19 -12 2 -7 8 -9 13 -5 4
4 3 16 -2 25 -15 23 -44 28 -44 8z"/>
<path d="M11095 5851 c-6 -5 -19 -11 -30 -13 -11 -2 -19 -8 -18 -13 4 -15 41
-14 54 1 13 16 8 39 -6 25z"/>
<path d="M11791 5851 c-11 -7 -9 -11 8 -20 27 -15 47 -5 30 15 -13 16 -19 17
-38 5z"/>
<path d="M3031 5654 c0 -11 3 -14 6 -6 3 7 2 16 -1 19 -3 4 -6 -2 -5 -13z"/>
<path d="M11765 5600 c-3 -6 1 -7 9 -4 18 7 21 14 7 14 -6 0 -13 -4 -16 -10z"/>
<path d="M11930 5558 c0 -19 2 -20 10 -8 13 19 13 30 0 30 -5 0 -10 -10 -10
-22z"/>
<path d="M11630 5550 c20 -13 33 -13 25 0 -3 6 -14 10 -23 10 -15 0 -15 -2 -2
-10z"/>
<path d="M11973 5523 c-17 -6 -17 -56 -1 -51 6 2 16 12 22 21 12 19 -1 37 -21
30z"/>
</g>
</svg>
